<svg width="759" height="508" viewBox="0 0 759 508" fill="none" xmlns="http://www.w3.org/2000/svg">
<g opacity="0.67">
<path d="M494.713 467.896L250.572 326.943L494.713 185.99L738.853 326.943L494.713 467.896Z" fill="#0F054C"/>
</g>
<g opacity="0.67">
<path d="M494.712 446.036L288.436 326.943L494.712 207.85L700.988 326.943L494.712 446.036Z" fill="#0F054C"/>
</g>
<g opacity="0.9">
<path d="M494.713 420.632L332.439 326.943L494.713 233.253L656.987 326.943L494.713 420.632Z" fill="#080344"/>
</g>
<path opacity="0.8" d="M727.132 0L628.566 56.9028V128.733L604.552 142.597V220.722L522.302 268.211L509.487 260.812L572.911 224.195V181.369L572.655 181.227L500.542 139.592V125.061L541.326 101.515C543.084 102.252 545.551 102.167 547.138 101.26C548.896 100.239 548.896 98.5946 547.138 97.5881C545.381 96.5675 542.531 96.5675 540.773 97.5881C539.186 98.5096 539.044 99.9272 540.32 100.948L499.535 124.494V140.187L499.79 140.329L571.904 181.964V223.628L523.989 251.299V233.452L545.962 220.764C547.72 221.501 550.186 221.416 551.774 220.509C553.532 219.488 553.532 217.844 551.774 216.837C550.016 215.817 547.167 215.817 545.409 216.837C543.821 217.759 543.68 219.176 544.955 220.197L522.982 232.885V251.895L508.48 260.259L491.341 250.364V219.29L523.663 200.62V179.143L523.408 179.001L455.348 139.705C456.624 138.685 456.482 137.267 454.895 136.346C453.137 135.325 450.287 135.325 448.53 136.346C446.772 137.366 446.772 139.011 448.53 140.017C450.117 140.939 452.584 141.009 454.342 140.272L522.642 179.71V200.025L491.327 218.113V196.693L491.072 196.551L449.437 172.509C450.713 171.488 450.571 170.07 448.983 169.149C447.225 168.128 444.376 168.128 442.618 169.149C440.86 170.17 440.86 171.814 442.618 172.821C444.206 173.742 446.673 173.813 448.43 173.076L490.321 197.26V249.754L478.285 242.808L458.453 254.262L440.492 243.885V218.68L440.237 218.538L392.747 191.122V167.363C393.725 167.306 394.675 167.065 395.426 166.626C397.184 165.605 397.184 163.961 395.426 162.954C393.668 161.933 390.819 161.933 389.061 162.954C387.303 163.975 387.303 165.619 389.061 166.626C389.812 167.065 390.762 167.292 391.74 167.363V191.703L391.995 191.845L439.485 219.261V243.304L362.197 198.678V151.372L404.116 127.174H442.59L442.703 127.103L508.721 88.9974C510.479 89.7346 512.946 89.6495 514.533 88.7423C516.291 87.7216 516.291 86.0772 514.533 85.0707C512.776 84.05 509.926 84.05 508.168 85.0707C506.581 85.9921 506.439 87.4097 507.715 88.4304L442.32 126.181H405.86L527.136 56.1656C528.894 56.9028 531.361 56.8177 532.948 55.9105C534.706 54.8898 534.706 53.2454 532.948 52.2389C531.19 51.2182 528.341 51.2182 526.583 52.2389C524.995 53.1603 524.854 54.5779 526.13 55.5986L361.191 150.819V199.287L361.446 199.429L457.461 254.858L438.139 266.014L274.206 171.375V114.897L273.951 114.755L218.197 82.5757C219.472 81.555 219.331 80.1374 217.743 79.2159C215.985 78.1953 213.136 78.1953 211.378 79.2159C209.62 80.2366 209.62 81.8811 211.378 82.8876C212.966 83.809 215.432 83.8799 217.19 83.1427L273.186 115.478V171.956L273.441 172.098L437.118 266.595L418.717 277.213L256.6 183.609H159.919L99.5003 148.721V95.1073C100.138 94.9797 100.748 94.7813 101.244 94.4978C103.002 93.4771 103.002 91.8327 101.244 90.8262C99.4861 89.8055 96.6367 89.8055 94.8789 90.8262C93.1211 91.8468 93.1211 93.4913 94.8789 94.4978C95.8712 95.0648 97.2038 95.3058 98.4938 95.2349V149.302L98.749 149.444L159.664 184.615H256.344L393.2 263.633H365.67L318.96 236.67H282.981L282.868 236.741L232.968 265.546C231.21 264.809 228.744 264.894 227.156 265.802C225.398 266.822 225.398 268.467 227.156 269.473C228.914 270.494 231.763 270.494 233.521 269.473C235.109 268.552 235.25 267.134 233.975 266.113L283.251 237.662H318.691L365.401 264.625H394.944L417.725 277.78L368.619 306.132L354.656 298.066V276.901L319.187 256.417C320.463 255.396 320.321 253.979 318.733 253.057C316.976 252.037 314.126 252.037 312.368 253.057C310.611 254.078 310.611 255.722 312.368 256.729C313.956 257.65 316.423 257.721 318.181 256.984L353.649 277.468V297.471L315.813 275.626H297.895L297.781 275.696L276.418 288.03C274.66 287.292 272.193 287.378 270.606 288.285C268.848 289.305 268.848 290.95 270.606 291.956C272.363 292.977 275.213 292.977 276.971 291.956C278.558 291.035 278.7 289.617 277.424 288.597L298.164 276.618H315.53L367.598 306.671L358.143 312.129L388.324 329.551L374.19 337.717H352.813L337.517 328.885C338.736 327.879 338.566 326.475 337.006 325.568C335.249 324.547 332.399 324.547 330.641 325.568C328.883 326.589 328.883 328.233 330.641 329.24C332.243 330.161 334.752 330.232 336.524 329.466L352.543 338.709H372.447L336.397 359.52L251.595 310.555H190.567L190.454 310.626L156.091 330.459C154.333 329.721 151.867 329.807 150.279 330.714C148.521 331.734 148.521 333.379 150.279 334.385C152.037 335.406 154.886 335.406 156.644 334.385C158.232 333.464 158.374 332.046 157.098 331.026L190.837 311.548H251.312L316.72 349.313H288.723L261.363 333.521C262.639 332.5 262.497 331.082 260.909 330.161C259.151 329.14 256.302 329.14 254.544 330.161C252.786 331.182 252.786 332.826 254.544 333.833C256.132 334.754 258.598 334.825 260.356 334.088L288.453 350.319H318.464L335.376 360.087L292.323 384.937H154.73L47.8285 323.215C49.1043 322.194 48.9626 320.776 47.3748 319.855C45.617 318.834 42.7676 318.834 41.0098 319.855C39.2519 320.876 39.2519 322.52 41.0098 323.527C42.5975 324.448 45.0641 324.519 46.822 323.782L154.461 385.93H290.58L273.498 395.796H171.642L171.529 395.867L121.303 424.871C119.545 424.134 117.079 424.219 115.491 425.126C113.733 426.147 113.733 427.792 115.491 428.798C117.249 429.819 120.098 429.819 121.856 428.798C123.444 427.877 123.585 426.459 122.31 425.438L171.926 396.803H273.781L273.894 396.732L389.33 330.09L402.145 337.49L280.784 407.562H192.028L191.914 407.633L84.7147 469.526L84.9982 470.533L85.1116 470.462L152.391 431.619V454.613L108.048 480.215C106.291 479.478 103.824 479.563 102.236 480.47C100.478 481.491 100.478 483.135 102.236 484.142C103.994 485.162 106.844 485.162 108.601 484.142C110.189 483.22 110.331 481.802 109.055 480.782L153.398 455.18V431.166H153.171L192.325 408.555H281.082L281.195 408.484L403.18 338.057L417.739 346.463L181.055 483.107V507.801H182.062V483.688L418.746 347.045L436.735 357.436L314.651 427.919V440.522L293.004 453.025V482.015L251.028 506.256C249.271 505.519 246.804 505.604 245.216 506.511C244.578 506.88 244.167 507.334 243.997 507.816H252.772C252.645 507.461 252.403 507.135 252.035 506.837L294.01 482.596V453.606L314.651 441.684V488.097L326.828 495.128L304.883 507.801H306.896L327.834 495.709L348.773 507.801H350.786L315.643 487.515V428.5L437.727 358.017L454.101 367.472L367.698 417.358C365.94 416.621 363.473 416.706 361.885 417.613C360.128 418.634 360.128 420.278 361.885 421.285C363.643 422.305 366.493 422.305 368.25 421.285C369.838 420.363 369.98 418.946 368.704 417.925L455.107 368.039L470.914 377.169L367.556 436.836H339.473C339.303 436.354 338.892 435.886 338.24 435.503C336.482 434.483 333.632 434.483 331.875 435.503C330.117 436.524 330.117 438.168 331.875 439.175C333.632 440.196 336.482 440.196 338.24 439.175C338.892 438.792 339.303 438.324 339.473 437.842H367.825L367.939 437.772L471.906 377.75L478.285 381.436L483.19 378.601L507.956 392.904V412.808L487.5 424.616V424.559H455.391L455.277 424.63L420.05 444.973C418.292 444.236 415.825 444.321 414.238 445.228C412.48 446.249 412.48 447.893 414.238 448.9C415.995 449.921 418.845 449.921 420.603 448.9C422.19 447.978 422.332 446.561 421.056 445.54L455.66 425.566H485.841L425.692 460.283C423.92 459.489 421.382 459.546 419.752 460.482C417.994 461.502 417.994 463.147 419.752 464.153C421.51 465.174 424.359 465.174 426.117 464.153C427.662 463.26 427.847 461.885 426.67 460.864L501.69 417.556V427.125L457.064 452.897V471.085L420.73 492.066C418.972 491.329 416.506 491.414 414.918 492.321C413.16 493.342 413.16 494.986 414.918 495.993C416.676 497.013 419.525 497.013 421.283 495.993C422.871 495.071 423.013 493.654 421.737 492.633L458.07 471.652V453.465L502.696 427.692V416.961L508.948 413.346V392.281L484.182 377.991L500.457 368.592L551.405 398.008V431.449L516.802 451.423C515.03 450.629 512.492 450.686 510.862 451.622C509.104 452.642 509.104 454.287 510.862 455.293C512.62 456.314 515.469 456.314 517.227 455.293C518.772 454.4 518.956 453.025 517.78 452.004L551.391 432.597V459.617L524.84 474.955V507.759H525.846V475.537L551.391 460.794V507.759H552.398V397.426L501.449 368.011L519.722 357.464L586.321 395.91V487.487L618.331 505.973V507.773H619.337V505.392L587.328 486.906V395.328L520.728 356.883L534.267 349.058L624.143 400.942V479.066L673.83 507.759H675.843L625.149 478.485V400.361L535.273 348.476L557.218 335.803L706.761 422.135V461.006L758.008 490.592V489.429L707.768 460.425V421.554L623.661 372.987H690.175L758.008 412.155V410.993L690.444 371.98H621.903L558.224 335.222L583.741 320.493L638.475 352.091H726.367L758.008 370.35V369.188L751.076 365.19H758.008V364.184H749.332L726.65 351.085H638.758L623.434 342.239H660.802L660.916 342.168L679.656 331.352H757.753L758.008 331.493V330.331H681.4L702.494 318.154C704.252 318.891 706.719 318.806 708.306 317.899C710.064 316.878 710.064 315.234 708.306 314.227C706.549 313.206 703.699 313.206 701.941 314.227C700.353 315.148 700.212 316.566 701.488 317.587L660.519 341.247H621.676L584.733 319.926L598.385 312.044L589.596 306.969H615.127L648.497 326.234C647.222 327.255 647.363 328.672 648.951 329.594C650.709 330.615 653.558 330.615 655.316 329.594C657.074 328.573 657.074 326.929 655.316 325.922C653.728 325.001 651.262 324.93 649.504 325.667L615.396 305.977H587.852L569.168 295.189L580.651 288.554H601.022L618.94 278.206H632.308L662.503 295.642C661.143 296.663 661.256 298.123 662.872 299.059C664.63 300.079 667.479 300.079 669.237 299.059C670.995 298.038 670.995 296.393 669.237 295.387C667.678 294.494 665.282 294.395 663.524 295.075L632.578 277.213H618.671L600.752 287.562H582.394L619.125 266.354H638.957L680.294 290.213H757.993V289.206H680.564L639.226 265.348H618.855L618.742 265.419L568.162 294.621L554.893 286.966L612.051 253.964H652.367L685.625 273.159H758.008V272.152H685.908L654.395 253.964H758.008V252.958H611.796L611.682 253.029L553.915 286.385L538.831 277.681L618.529 231.666H758.008V230.659H656.365L758.008 171.97V170.808L654.352 230.659H619.266L694.825 187.039V177.428L730.988 156.561C732.746 157.298 735.213 157.213 736.8 156.305C738.558 155.285 738.558 153.64 736.8 152.634C735.042 151.613 732.193 151.613 730.435 152.634C728.847 153.555 728.706 154.973 729.982 155.994L710.291 167.363V141.009L758.022 113.451V112.289L709.284 140.428V167.944L693.818 176.875V186.486L617.636 230.475L617.891 230.914L537.825 277.142L523.266 268.736L605.516 221.246V143.122L758.008 55.0741V53.9116L629.53 128.095V57.4273L727.869 0.652098" fill="url(#paint0_radial_1321_9627)"/>
<path opacity="0.1" d="M758.068 119.391L737.073 131.511V170.581L550.516 278.291L536.34 270.111L632.567 214.555V204.617L649.621 194.765V171.927L682.708 152.832C684.097 153.413 686.039 153.343 687.286 152.62C688.676 151.826 688.676 150.521 687.286 149.728C685.897 148.934 683.657 148.934 682.268 149.728C681.021 150.451 680.907 151.571 681.914 152.379L648.827 171.488V194.326L632.567 203.71V167.136L632.368 167.022L622.97 161.593L679.376 129.031V92.3996L719.452 69.2642C720.841 69.8454 722.783 69.7745 724.031 69.0515C725.42 68.2577 725.42 66.9535 724.031 66.1596C722.642 65.3658 720.402 65.3658 719.013 66.1596C717.765 66.8826 717.652 68.0025 718.658 68.8106L678.582 91.9459V128.577L622.176 161.139L530.471 108.192V67.2228C531.236 67.1661 531.988 66.9818 532.583 66.6416C533.972 65.8478 533.972 64.5436 532.583 63.7497C531.194 62.9558 528.954 62.9558 527.565 63.7497C526.175 64.5436 526.175 65.8478 527.565 66.6416C528.16 66.9818 528.911 67.1661 529.677 67.2228V108.645L529.875 108.759L585.034 140.612H544.831L512.325 121.843C513.332 121.049 513.218 119.915 511.971 119.192C510.582 118.398 508.342 118.398 506.953 119.192C505.563 119.986 505.563 121.29 506.953 122.084C508.2 122.807 510.142 122.864 511.531 122.297L544.618 141.406H586.395L631.787 167.604V214.115L535.56 269.671L522.66 262.229L590.762 222.905C592.151 223.486 594.093 223.415 595.34 222.692C596.73 221.898 596.73 220.594 595.34 219.8C593.951 219.006 591.711 219.006 590.322 219.8C589.075 220.523 588.961 221.643 589.968 222.451L521.866 261.775L509.405 254.588L590.861 207.552H613.004C613.131 207.935 613.457 208.303 613.982 208.601C615.371 209.395 617.611 209.395 619 208.601C620.39 207.807 620.39 206.503 619 205.709C617.611 204.915 615.371 204.915 613.982 205.709C613.472 206.007 613.146 206.375 613.004 206.758H590.648L590.549 206.815L508.597 254.134L503.564 251.228L503.366 251.342L499.694 253.468L480.174 242.198V226.519L496.306 217.206V217.248H521.611L549.467 201.158C550.856 201.74 552.798 201.669 554.045 200.946C555.435 200.152 555.435 198.848 554.045 198.054C552.656 197.26 550.416 197.26 549.027 198.054C547.78 198.777 547.666 199.897 548.673 200.705L521.398 216.454H497.611L545.015 189.08C546.405 189.704 548.418 189.662 549.693 188.925C551.083 188.131 551.083 186.826 549.693 186.033C548.304 185.239 546.064 185.239 544.675 186.033C543.456 186.741 543.314 187.819 544.236 188.627L485.107 222.763V215.221L520.292 194.907V180.561L548.928 164.031C550.317 164.613 552.259 164.542 553.507 163.819C554.896 163.025 554.896 161.721 553.507 160.927C552.118 160.133 549.878 160.133 548.488 160.927C547.241 161.65 547.128 162.77 548.134 163.578L519.498 180.121V194.467L484.313 214.782V223.245L479.38 226.094V242.694L498.901 253.964L486.071 261.364L445.91 238.172V211.819L473.185 196.069C474.574 196.693 476.587 196.65 477.863 195.913C479.253 195.119 479.253 193.815 477.863 193.021C476.474 192.228 474.234 192.228 472.845 193.021C471.626 193.73 471.484 194.808 472.405 195.616L445.91 210.912V189.619L466.848 177.541V137.479C467.614 137.423 468.365 137.238 468.961 136.898C470.35 136.104 470.35 134.8 468.961 134.006C467.571 133.212 465.332 133.212 463.942 134.006C462.553 134.8 462.553 136.104 463.942 136.898C464.538 137.238 465.289 137.423 466.055 137.479V177.073L445.91 188.698V118.072H445.116V238.654L485.277 261.846L470.874 270.168L418.38 239.859V167.689L393.147 153.116V125.969L370.862 113.111C371.869 112.317 371.755 111.183 370.508 110.46C369.118 109.666 366.879 109.666 365.489 110.46C364.1 111.254 364.1 112.558 365.489 113.352C366.737 114.075 368.679 114.131 370.068 113.564L392.353 126.422V153.569L417.587 168.142V240.313L470.081 270.621L459.406 276.788L388.568 235.89V174.309L388.37 174.196L325.669 137.99C326.675 137.196 326.562 136.062 325.314 135.339C323.925 134.545 321.685 134.545 320.296 135.339C318.907 136.133 318.907 137.437 320.296 138.231C321.544 138.954 323.486 139.011 324.875 138.443L387.774 174.763V236.343L387.973 236.457L458.612 277.241L441.317 287.236L323.457 219.19V188.542L323.259 188.428L224.593 131.455C225.6 130.661 225.486 129.527 224.239 128.804C222.85 128.01 220.61 128.01 219.221 128.804C217.831 129.598 217.831 130.902 219.221 131.696C220.468 132.419 222.41 132.475 223.8 131.908L322.678 188.995V219.644L322.876 219.757L388.965 257.919H336.542L275.854 222.876C276.861 222.068 276.747 220.948 275.5 220.225C274.11 219.431 271.871 219.431 270.481 220.225C269.092 221.019 269.092 222.323 270.481 223.117C271.729 223.84 273.671 223.897 275.06 223.33L336.329 258.713H390.34L440.538 287.689L420.436 299.299L377.298 274.392H308.02L229.229 228.901H185.524L167.705 218.609C168.711 217.815 168.598 216.681 167.35 215.958C165.961 215.164 163.721 215.164 162.332 215.958C160.943 216.752 160.943 218.056 162.332 218.85C163.58 219.573 165.522 219.63 166.911 219.063L185.311 229.681H229.016L288.556 264.058H237.125L212.359 249.754C213.366 248.96 213.253 247.826 212.005 247.103C210.616 246.309 208.376 246.309 206.987 247.103C205.597 247.897 205.597 249.201 206.987 249.995C208.234 250.718 210.176 250.775 211.566 250.208L236.912 264.837H289.931L307.807 275.158H377.085L389.163 282.132H359.72L359.635 282.189L344.863 290.723H283.311L265.945 280.7H231.129C231.001 280.318 230.675 279.949 230.15 279.651C228.761 278.858 226.521 278.858 225.132 279.651C223.743 280.445 223.743 281.749 225.132 282.543C226.521 283.337 228.761 283.337 230.15 282.543C230.661 282.246 230.987 281.877 231.129 281.494H265.732L283.098 291.517H343.488L326.86 301.114C325.47 300.533 323.528 300.604 322.281 301.327C320.892 302.121 320.892 303.425 322.281 304.219C323.67 305.012 325.91 305.012 327.299 304.219C328.547 303.496 328.66 302.376 327.654 301.582L359.947 282.94H390.567L419.685 299.753L408.925 305.962L409.52 306.302L415.843 309.96H395.727L369.416 294.777C370.423 293.983 370.309 292.849 369.062 292.126C367.673 291.333 365.433 291.333 364.043 292.126C362.654 292.92 362.654 294.224 364.043 295.018C365.291 295.741 367.233 295.798 368.622 295.231L395.514 310.754H417.232L431.961 319.259L422.903 324.49H406.841L406.756 324.547L392.722 332.642H382.189L358.387 318.905C359.45 318.097 359.365 316.949 358.09 316.212C356.7 315.418 354.46 315.418 353.071 316.212C351.682 317.005 351.682 318.31 353.071 319.103C354.29 319.812 356.19 319.883 357.579 319.344L381.976 333.421H392.934L393.019 333.365L407.054 325.27H421.527L392.58 341.984H376.958L344.381 323.172H246.141L185.198 287.987C186.247 287.179 186.162 286.045 184.886 285.308C183.497 284.514 181.257 284.514 179.868 285.308C178.479 286.102 178.479 287.406 179.868 288.2C181.101 288.908 183.001 288.979 184.39 288.441L245.914 323.966H344.154L376.731 342.777H392.793L392.878 342.721L432.741 319.699L443.203 325.738L398.151 351.751H366.383L340.171 336.611H272.891C272.764 336.228 272.438 335.86 271.913 335.562C270.524 334.768 268.284 334.768 266.895 335.562C265.506 336.356 265.506 337.66 266.895 338.454C268.284 339.248 270.524 339.248 271.913 338.454C272.423 338.156 272.75 337.788 272.877 337.405H339.944L364.781 351.737H269.985L269.9 351.794L179.556 403.947C178.167 403.366 176.225 403.437 174.977 404.16C173.588 404.954 173.588 406.258 174.977 407.052C176.366 407.846 178.606 407.846 179.995 407.052C181.243 406.329 181.356 405.209 180.35 404.415L270.198 352.545H398.364L398.449 352.488L443.982 326.192L455.862 333.053L393.048 369.315H282.446L282.361 369.372L185.51 425.297H72.6541L6.8346 387.305C7.8411 386.511 7.72769 385.377 6.4802 384.668C5.09094 383.874 2.85112 383.874 1.46186 384.668C0.0726079 385.462 0.0726079 386.766 1.46186 387.56C2.70936 388.283 4.65149 388.339 6.04074 387.772L72.4415 426.105H185.723L185.822 426.048L282.673 370.123H363.235L244.936 438.424V456.399L197.744 483.645C196.355 483.064 194.413 483.135 193.165 483.858C191.776 484.652 191.776 485.956 193.165 486.75C194.554 487.544 196.794 487.544 198.183 486.75C199.431 486.027 199.544 484.907 198.538 484.099L245.73 456.852V438.877L364.837 370.109H392.495L332.941 404.5V412.084L304.447 428.543C303.058 427.962 301.116 428.033 299.868 428.755C298.479 429.549 298.479 430.854 299.868 431.647C301.258 432.441 303.497 432.441 304.887 431.647C306.134 430.924 306.248 429.805 305.241 428.996L320.764 420.037V440.805L231.114 492.562C229.725 491.981 227.783 492.052 226.536 492.775C225.146 493.569 225.146 494.873 226.536 495.667C227.925 496.46 230.165 496.46 231.554 495.667C232.801 494.944 232.915 493.824 231.908 493.016L321.558 441.259V419.569L333.749 412.538V404.954L393.799 370.279L393.601 369.939L456.713 333.506L468.181 340.127L403.354 377.551V439.132L284.119 507.971H285.706L384.429 450.984V506.681L382.175 507.986H383.762L385.223 507.149V450.53L404.148 439.6V378.019L468.975 340.594L479.068 346.421L429.083 375.283V409.037L429.282 409.15L486.114 441.968V453.422L453.962 471.978C452.573 471.397 450.631 471.468 449.383 472.191C447.994 472.985 447.994 474.289 449.383 475.083C450.773 475.877 453.013 475.877 454.402 475.083C455.649 474.36 455.763 473.24 454.756 472.432L486.893 453.876V441.514L486.695 441.401L429.863 408.583V375.737L467.628 353.934V367.997L450.305 377.991C448.916 377.41 446.974 377.481 445.726 378.204C444.337 378.997 444.337 380.302 445.726 381.095C447.115 381.889 449.355 381.889 450.744 381.095C451.992 380.372 452.105 379.253 451.099 378.459L468.408 368.465V353.48L479.834 346.889L493.344 354.685V379.182L467.869 393.896V410.837L468.068 410.95L521.71 441.925C520.703 442.733 520.817 443.853 522.064 444.576C523.453 445.37 525.693 445.37 527.083 444.576C528.472 443.782 528.472 442.478 527.083 441.684C525.835 440.961 523.893 440.904 522.504 441.471L468.663 410.383V394.364L493.344 380.117V397.001L526.36 416.068C525.353 416.862 525.466 417.996 526.714 418.705C528.103 419.498 530.343 419.498 531.732 418.705C533.122 417.911 533.122 416.607 531.732 415.813C530.485 415.09 528.543 415.033 527.153 415.6L494.137 396.533V355.153L503.621 360.625L503.82 360.512L519.257 351.595L533.419 359.775V379.635L571.057 401.367V420.094C570.291 420.151 569.54 420.335 568.945 420.675C567.555 421.469 567.555 422.773 568.945 423.567C570.334 424.361 572.574 424.361 573.963 423.567C575.352 422.773 575.352 421.469 573.963 420.675C573.367 420.335 572.616 420.151 571.851 420.094V400.914L534.213 379.182V360.228L595.142 395.399V432.682L562.098 451.763H531.775L531.69 451.82L479.664 481.859C478.274 481.278 476.332 481.349 475.085 482.072C473.695 482.866 473.695 484.17 475.085 484.964C476.474 485.758 478.714 485.758 480.103 484.964C481.351 484.241 481.464 483.121 480.457 482.327L532.002 452.571H560.737L465.161 507.759C463.772 507.178 461.83 507.248 460.583 507.971C460.568 507.971 460.554 508 460.54 508H466.338L595.964 433.164V394.96L595.766 394.846L520.094 351.156L535.319 342.366L664.52 416.961V461.474L708.65 486.962C707.643 487.756 707.757 488.89 709.004 489.599C710.393 490.393 712.633 490.393 714.023 489.599C715.412 488.805 715.412 487.501 714.023 486.707C712.775 485.984 710.833 485.928 709.444 486.495L665.299 461.006V416.493L665.101 416.38L536.099 341.899L550.601 333.521L678.384 407.293H754.58L758.153 409.363V408.441L754.793 406.499H678.597L570.731 344.223H592.42L629.235 365.473H657.588L657.687 365.417L697.011 342.707C698.401 343.288 700.343 343.217 701.59 342.494C702.979 341.7 702.979 340.396 701.59 339.602C700.201 338.808 697.961 338.808 696.572 339.602C695.324 340.325 695.211 341.445 696.217 342.253L657.375 364.68H629.448L592.633 343.43H569.356L551.395 333.067L590.095 310.725L601.096 317.076V333.762L629.051 349.908C628.045 350.702 628.158 351.836 629.406 352.545C630.795 353.339 633.035 353.339 634.424 352.545C635.813 351.751 635.813 350.447 634.424 349.653C633.176 348.93 631.234 348.873 629.845 349.44L601.89 333.294V317.53L631.702 334.74H645.821L645.906 334.683L662.748 324.958C664.137 325.539 666.079 325.469 667.327 324.746C668.716 323.952 668.716 322.647 667.327 321.854C665.937 321.06 663.698 321.06 662.308 321.854C661.061 322.577 660.947 323.697 661.954 324.505L645.609 333.946H631.915L590.875 310.258L598.332 305.948L597.736 305.608L574.544 292.211L585.687 285.775H602.528L614.577 292.736C613.613 293.53 613.741 294.636 614.974 295.344C616.364 296.138 618.603 296.138 619.993 295.344C621.382 294.55 621.382 293.246 619.993 292.452C618.731 291.715 616.746 291.673 615.357 292.268L602.726 284.982H587.047L615.456 268.58L682.297 307.167H730.396L730.495 307.11L757.572 291.474C757.742 291.545 757.94 291.574 758.139 291.63V287.973C757.784 288.072 757.444 288.2 757.146 288.37C755.899 289.093 755.785 290.213 756.792 291.021L730.198 306.373H682.523L630.979 276.604H653.037L674.599 289.05C673.592 289.858 673.706 290.978 674.953 291.701C676.343 292.495 678.582 292.495 679.972 291.701C681.361 290.907 681.361 289.603 679.972 288.809C678.724 288.086 676.782 288.029 675.393 288.597L653.236 275.81H629.576L616.236 268.112L650.174 248.521H758.11V247.727H651.549L665.016 239.958H745.295L745.38 239.902L758.11 232.558V231.637L745.082 239.165H664.803L664.704 239.221L573.722 291.744L563.629 285.917L659.275 230.687H729.234L729.319 230.631L758.11 214.002V213.081L729.007 229.879H659.048L658.963 229.936L562.82 285.449L551.352 278.829L737.909 171.119V132.05L758.11 120.383V119.462L758.068 119.391ZM596.673 305.849L503.55 359.605L410.442 305.849L503.564 252.093L596.673 305.849Z" fill="#BBF39F"/>
<path d="M478.218 398.546C471.584 398.546 464.964 397.086 459.917 394.18L361.464 337.334C356.517 334.484 353.795 330.657 353.795 326.56C353.795 322.477 356.517 318.65 361.464 315.786L459.917 258.94C470.01 253.114 486.426 253.114 496.52 258.94L594.973 315.786C599.92 318.65 602.642 322.463 602.642 326.56C602.642 330.643 599.92 334.47 594.973 337.334L496.52 394.18C491.473 397.1 484.839 398.546 478.218 398.546ZM478.218 255.283C471.712 255.283 465.219 256.714 460.271 259.564L361.819 316.41C357.098 319.132 354.504 322.747 354.504 326.574C354.504 330.402 357.098 334.002 361.819 336.738L460.271 393.584C470.166 399.297 486.27 399.297 496.165 393.584L594.618 336.738C599.339 334.017 601.933 330.402 601.933 326.588C601.933 322.775 599.339 319.16 594.618 316.438L496.165 259.592C491.218 256.729 484.711 255.311 478.218 255.311V255.283Z" fill="#BBF39F"/>
<path opacity="0.4" d="M606.229 308.132V296.663L600.062 299.484C602.387 285.436 581.86 317.516 575.566 318.395L505.025 359.647L474.235 361.76L375.966 320.054L378.235 318.735C369.842 314.809 365.306 305.835 360.77 297.655L354.149 301.596L350.223 297.018V308.486C350.223 312.852 353.1 317.233 358.87 320.55L457.323 377.396C468.848 384.045 487.603 384.045 499.128 377.396L597.581 320.55C603.252 317.275 606.129 312.994 606.229 308.699C606.229 308.5 606.229 308.316 606.229 308.117V308.132Z" fill="#BBF39F"/>
<path d="M606.231 297.641V284.344L600.064 280.914C598.32 291.447 585.93 298.379 575.568 299.825L505.027 341.077L474.237 352.191L375.968 301.483L378.237 300.165C369.844 296.238 365.308 287.265 360.772 279.085L354.151 283.026L350.225 284.132V298.01C350.225 302.376 353.102 306.757 358.872 310.074L457.325 366.92C468.85 373.569 487.605 373.569 499.13 366.92L597.583 310.074C603.254 306.799 606.131 302.518 606.231 298.223C606.231 298.024 606.231 297.84 606.231 297.641Z" fill="url(#paint1_linear_1321_9627)"/>
<path d="M606.231 297.641V284.344L600.064 280.914C598.32 291.447 585.93 298.379 575.568 299.825L505.027 341.077L474.237 352.191L375.968 301.483L378.237 300.165C369.844 296.238 365.308 287.265 360.772 279.085L354.151 283.026L350.225 284.132V298.01C350.225 302.376 353.102 306.757 358.872 310.074L457.325 366.92C468.85 373.569 487.605 373.569 499.13 366.92L597.583 310.074C603.254 306.799 606.131 302.518 606.231 298.223C606.231 298.024 606.231 297.84 606.231 297.641Z" fill="url(#paint2_linear_1321_9627)"/>
<path opacity="0.3" d="M575.563 299.824L505.023 341.077L478.23 350.759V371.91C485.8 371.91 493.371 370.251 499.14 366.92L597.593 310.073C603.263 306.799 606.141 302.518 606.24 298.222C606.24 298.024 606.24 297.839 606.24 297.641V306.657V284.344L600.598 281.211H600.003C598.075 291.574 585.827 298.392 575.563 299.824Z" fill="#0F054C"/>
<path d="M457.31 353.254L358.857 296.408C347.332 289.759 347.332 278.929 358.857 272.266L457.31 215.42C468.835 208.771 487.59 208.771 499.115 215.42L597.568 272.266C609.093 278.915 609.093 289.745 597.568 296.408L499.115 353.254C487.59 359.903 468.835 359.903 457.31 353.254Z" fill="url(#paint3_linear_1321_9627)"/>
<path d="M467.348 320.182L416.144 290.624C410.147 287.165 410.147 281.538 416.144 278.064L467.348 248.507C473.344 245.048 483.098 245.048 489.094 248.507L540.298 278.064C546.294 281.523 546.294 287.151 540.298 290.624L489.094 320.182C483.098 323.641 473.344 323.641 467.348 320.182Z" fill="#0F054C"/>
<g style="mix-blend-mode:lighten">
<path d="M467.346 320.182L416.142 290.624C410.145 287.165 410.145 281.538 416.142 278.064L467.346 248.507C473.342 245.048 483.096 245.048 489.092 248.507L540.296 278.064C546.293 281.523 546.293 287.151 540.296 290.624L489.092 320.182C483.096 323.641 473.342 323.641 467.346 320.182Z" fill="url(#paint4_radial_1321_9627)"/>
</g>
<path d="M414.171 289.221C414.738 288.725 415.39 288.257 416.141 287.818L467.346 258.26C473.342 254.801 483.095 254.801 489.092 258.26L540.296 287.818C541.047 288.257 541.713 288.725 542.266 289.221C546.193 285.776 545.527 281.084 540.296 278.064L489.092 248.507C483.095 245.048 473.342 245.048 467.346 248.507L416.141 278.064C410.896 281.098 410.244 285.776 414.171 289.221Z" fill="url(#paint5_radial_1321_9627)"/>
<path d="M478.218 355.04C470.96 355.04 463.687 353.438 458.159 350.248L364.327 296.082C358.926 292.963 355.949 288.795 355.949 284.344C355.949 279.892 358.926 275.725 364.327 272.606L458.145 218.439C469.202 212.046 487.206 212.06 498.263 218.439L592.094 272.606C597.495 275.725 600.472 279.892 600.472 284.344C600.472 288.795 597.495 292.963 592.094 296.082L498.277 350.248C492.748 353.438 485.476 355.04 478.218 355.04ZM458.428 349.766C469.344 356.061 487.092 356.061 497.994 349.766L591.811 295.6C597.042 292.58 599.905 288.582 599.905 284.33C599.905 280.077 597.028 276.079 591.811 273.06L497.979 218.893C487.064 212.599 469.315 212.599 458.414 218.893L364.597 273.06C359.366 276.079 356.502 280.077 356.502 284.33C356.502 288.582 359.38 292.58 364.611 295.6L458.442 349.766H458.428Z" fill="#19D3E9"/>
<path d="M478.218 338.936C472.604 338.936 466.99 337.703 462.709 335.236L390.34 293.459C386.158 291.035 383.848 287.803 383.848 284.344C383.848 280.885 386.158 277.653 390.34 275.229L462.709 233.452C471.257 228.519 485.164 228.519 493.726 233.452L566.095 275.229C570.277 277.653 572.588 280.885 572.588 284.344C572.588 287.803 570.277 291.035 566.095 293.459L493.726 335.236C489.445 337.703 483.832 338.936 478.218 338.936ZM478.218 230.291C472.703 230.291 467.189 231.51 462.993 233.934L390.624 275.711C386.612 278.022 384.401 281.098 384.401 284.344C384.401 287.59 386.612 290.667 390.624 292.977L462.993 334.754C471.385 339.602 485.051 339.602 493.443 334.754L565.812 292.977C569.824 290.667 572.035 287.605 572.035 284.344C572.035 281.084 569.824 278.022 565.812 275.711L493.443 233.934C489.247 231.51 483.732 230.291 478.218 230.291Z" fill="#19D3E9"/>
<g opacity="0.4">
<path d="M467.346 320.182L416.142 290.624C410.145 287.165 410.145 281.538 416.142 278.064L467.346 248.507C473.342 245.048 483.096 245.048 489.092 248.507L540.296 278.064C546.293 281.523 546.293 287.151 540.296 290.624L489.092 320.182C483.096 323.641 473.342 323.641 467.346 320.182Z" fill="#BBF39F"/>
</g>
<path d="M597.582 296.422L499.129 353.268C487.604 359.916 468.849 359.916 457.324 353.268L358.871 296.422C353.725 293.445 350.876 289.631 350.323 285.747C349.643 290.567 352.492 295.529 358.871 299.2L457.324 356.046C468.849 362.695 487.604 362.695 499.129 356.046L597.582 299.2C603.961 295.514 606.797 290.567 606.116 285.747C605.563 289.645 602.728 293.459 597.582 296.422Z" fill="white"/>
<path opacity="0.4" d="M597.576 233.835L499.123 176.989C487.598 170.34 468.843 170.326 457.317 176.989L358.865 233.835C347.339 240.483 347.339 251.314 358.865 257.977L457.317 314.823C468.843 321.471 487.598 321.471 499.123 314.823L597.576 257.977C609.101 251.328 609.101 240.498 597.576 233.835Z" fill="#BBF39F"/>
<path d="M477.428 308.883C472.112 308.883 466.81 307.721 462.77 305.381L445.83 295.487C441.875 293.204 439.691 290.142 439.691 286.868C439.691 283.593 441.875 280.531 445.83 278.248L464.329 267.361C472.41 262.697 485.565 262.697 493.646 267.361L510.586 277.256C514.541 279.538 516.724 282.601 516.724 285.875C516.724 289.15 514.541 292.212 510.586 294.494L492.086 305.381C488.046 307.721 482.73 308.883 477.428 308.883ZM463.054 304.899C470.978 309.478 483.892 309.478 491.817 304.899L510.317 294.012C514.102 291.829 516.186 288.937 516.186 285.861C516.186 282.785 514.102 279.907 510.317 277.71L493.376 267.815C485.452 263.236 472.537 263.236 464.613 267.815L446.113 278.702C442.328 280.885 440.244 283.777 440.244 286.853C440.244 289.915 442.328 292.821 446.113 295.005L463.054 304.899Z" fill="#BBF39F"/>
<path opacity="0.4" d="M519.599 271.104V261.918L514.652 264.172C516.509 252.916 500.079 278.617 495.032 279.312L498.888 277.71L474.222 279.397L457.423 281.622L459.238 280.573C452.504 277.426 448.889 270.239 445.246 263.675L439.944 266.837L436.797 263.179V272.365C436.797 275.867 439.108 279.368 443.729 282.033L460.669 291.928C469.898 297.259 484.925 297.259 494.167 291.928L512.667 281.041C517.204 278.419 519.514 274.988 519.585 271.543C519.585 271.387 519.585 271.231 519.585 271.075L519.599 271.104Z" fill="#BBF39F"/>
<path d="M519.595 262.711V252.051L514.648 249.301C513.259 257.736 503.321 263.293 495.028 264.441L498.884 262.839L474.218 271.742L457.419 266.752L459.234 265.703C452.5 262.555 448.885 255.368 445.242 248.805L439.94 251.966L436.793 252.845V263.959C436.793 267.46 439.104 270.962 443.725 273.627L460.665 283.522C469.894 288.852 484.921 288.852 494.164 283.522L512.663 272.635C517.2 270.012 519.51 266.581 519.581 263.137C519.581 262.981 519.581 262.825 519.581 262.669L519.595 262.711Z" fill="url(#paint6_linear_1321_9627)"/>
<path d="M519.595 262.711V252.051L514.648 249.301C513.259 257.736 503.321 263.293 495.028 264.441L498.884 262.839L474.218 271.742L457.419 266.752L459.234 265.703C452.5 262.555 448.885 255.368 445.242 248.805L439.94 251.966L436.793 252.845V263.959C436.793 267.46 439.104 270.962 443.725 273.627L460.665 283.522C469.894 288.852 484.921 288.852 494.164 283.522L512.663 272.635C517.2 270.012 519.51 266.581 519.581 263.137C519.581 262.981 519.581 262.825 519.581 262.669L519.595 262.711Z" fill="url(#paint7_linear_1321_9627)"/>
<path opacity="0.3" d="M495.023 264.455L498.879 262.853L477.416 270.608V287.562C483.483 287.562 489.551 286.23 494.172 283.565L512.672 272.677C517.208 270.055 519.519 266.624 519.59 263.179C519.59 263.023 519.59 262.868 519.59 262.712V269.927V252.051L515.068 249.542H514.6C513.055 257.849 503.245 263.307 495.023 264.455Z" fill="#0F054C"/>
<path d="M460.676 272.606L443.736 262.711C434.507 257.381 434.507 248.705 443.736 243.375L462.236 232.488C471.464 227.158 486.491 227.158 495.734 232.488L512.674 242.383C521.903 247.713 521.903 256.389 512.674 261.719L494.174 272.606C484.946 277.936 469.919 277.936 460.676 272.606Z" fill="url(#paint8_linear_1321_9627)"/>
<path d="M477.524 273.925C472.151 273.925 466.779 272.748 462.682 270.381L447.783 261.677C443.785 259.366 441.588 256.276 441.588 252.987C441.588 249.698 443.785 246.608 447.783 244.297L464.043 234.728C472.222 230.007 485.534 230.007 493.728 234.728L508.627 243.432C512.624 245.743 514.822 248.833 514.822 252.122C514.822 255.425 512.624 258.501 508.627 260.812L492.367 270.381C488.27 272.748 482.897 273.925 477.524 273.925ZM462.909 269.998C470.975 274.648 484.088 274.648 492.14 269.998L508.4 260.429C512.256 258.204 514.382 255.255 514.382 252.122C514.382 248.989 512.256 246.04 508.4 243.815L493.501 235.111C485.449 230.461 472.322 230.461 464.27 235.111L448.01 244.68C444.154 246.905 442.027 249.854 442.027 252.987C442.027 256.12 444.154 259.068 448.01 261.294L462.909 269.998Z" fill="#19D3E9"/>
<path d="M512.668 261.719L494.168 272.606C484.939 277.936 469.912 277.936 460.67 272.606L443.729 262.711C439.604 260.329 437.322 257.281 436.882 254.149C436.343 258.019 438.612 261.988 443.729 264.937L460.67 274.831C469.898 280.162 484.925 280.162 494.168 274.831L512.668 263.944C517.771 260.996 520.053 257.026 519.515 253.156C519.075 256.275 516.807 259.323 512.668 261.719Z" fill="white"/>
<path opacity="0.4" d="M457.428 272.265L458.987 272.053C458.774 271.953 458.562 271.84 458.349 271.727L457.428 272.265Z" fill="#BBF39F"/>
<path opacity="0.4" d="M496.147 269.516H496.062L495.027 269.941C495.353 269.898 495.722 269.742 496.133 269.516H496.147Z" fill="#BBF39F"/>
<path opacity="0.4" d="M514.77 254.744C514.799 254.389 514.799 254.106 514.77 253.851C514.742 254.134 514.713 254.446 514.643 254.8L514.77 254.744Z" fill="#BBF39F"/>
<path opacity="0.8" d="M519.595 261.733C519.595 261.889 519.595 262.031 519.595 262.187C519.524 265.631 517.213 269.062 512.677 271.685L494.177 282.572C484.949 287.902 469.922 287.902 460.679 282.572L443.739 272.677C439.117 270.012 436.807 266.51 436.807 263.009V263.987C436.807 267.488 439.117 270.99 443.739 273.655L460.679 283.55C469.908 288.88 484.934 288.88 494.177 283.55L512.677 272.663C517.213 270.04 519.524 266.61 519.595 263.165C519.595 263.009 519.595 262.853 519.595 262.697V261.719V261.733Z" fill="#BBF39F"/>
<path opacity="0.4" d="M519.599 253.993V244.807L514.652 247.061C516.509 235.805 500.079 261.507 495.032 262.201L498.888 260.599L474.222 262.286L457.423 264.512L459.238 263.463C452.504 260.316 448.889 253.129 445.246 246.565L439.944 249.726L436.797 246.069V255.255C436.797 258.756 439.108 262.258 443.729 264.923L460.669 274.818C469.898 280.148 484.925 280.148 494.167 274.818L512.667 263.931C517.204 261.308 519.514 257.878 519.585 254.433C519.585 254.277 519.585 254.121 519.585 253.965L519.599 253.993Z" fill="#BBF39F"/>
<path d="M519.595 245.601V234.941L514.648 232.19C513.259 240.625 503.321 246.182 495.028 247.331L498.884 245.729L474.218 254.631L457.419 249.641L459.234 248.592C452.5 245.445 448.885 238.258 445.242 231.694L439.94 234.856L436.793 235.735V246.849C436.793 250.35 439.104 253.852 443.725 256.517L460.665 266.412C469.894 271.742 484.921 271.742 494.164 266.412L512.663 255.524C517.2 252.902 519.51 249.471 519.581 246.026C519.581 245.87 519.581 245.714 519.581 245.559L519.595 245.601Z" fill="url(#paint9_linear_1321_9627)"/>
<path d="M519.595 245.601V234.941L514.648 232.19C513.259 240.625 503.321 246.182 495.028 247.331L498.884 245.729L474.218 254.631L457.419 249.641L459.234 248.592C452.5 245.445 448.885 238.258 445.242 231.694L439.94 234.856L436.793 235.735V246.849C436.793 250.35 439.104 253.852 443.725 256.517L460.665 266.412C469.894 271.742 484.921 271.742 494.164 266.412L512.663 255.524C517.2 252.902 519.51 249.471 519.581 246.026C519.581 245.87 519.581 245.714 519.581 245.559L519.595 245.601Z" fill="url(#paint10_linear_1321_9627)"/>
<path opacity="0.3" d="M495.023 247.345L498.879 245.743L477.416 253.497V270.452C483.483 270.452 489.551 269.119 494.172 266.454L512.672 255.567C517.208 252.944 519.519 249.514 519.59 246.069C519.59 245.913 519.59 245.757 519.59 245.601V252.817V234.941L515.068 232.432H514.6C513.055 240.725 503.245 246.197 495.023 247.345Z" fill="#0F054C"/>
<path d="M460.676 255.496L443.736 245.601C434.507 240.271 434.507 231.595 443.736 226.265L462.236 215.378C471.464 210.047 486.491 210.047 495.734 215.378L512.674 225.272C521.903 230.603 521.903 239.278 512.674 244.609L494.174 255.496C484.946 260.826 469.919 260.826 460.676 255.496Z" fill="url(#paint11_linear_1321_9627)"/>
<path d="M477.524 256.815C472.151 256.815 466.779 255.638 462.682 253.27L447.783 244.566C443.785 242.256 441.588 239.165 441.588 235.876C441.588 232.588 443.785 229.497 447.783 227.186L464.043 217.618C472.222 212.897 485.534 212.897 493.728 217.618L508.627 226.322C512.624 228.632 514.822 231.723 514.822 235.012C514.822 238.315 512.624 241.391 508.627 243.702L492.367 253.27C488.27 255.638 482.897 256.815 477.524 256.815ZM462.909 252.888C470.975 257.537 484.088 257.537 492.14 252.888L508.4 243.319C512.256 241.093 514.382 238.145 514.382 235.012C514.382 231.879 512.256 228.93 508.4 226.704L493.501 218C485.449 213.351 472.322 213.351 464.27 218L448.01 227.569C444.154 229.795 442.027 232.744 442.027 235.876C442.027 239.009 444.154 241.958 448.01 244.184L462.909 252.888Z" fill="#19D3E9"/>
<path d="M512.668 244.608L494.168 255.495C484.939 260.826 469.912 260.826 460.67 255.495L443.729 245.601C439.604 243.219 437.322 240.171 436.882 237.038C436.343 240.908 438.612 244.878 443.729 247.826L460.67 257.721C469.898 263.051 484.925 263.051 494.168 257.721L512.668 246.834C517.771 243.885 520.053 239.916 519.515 236.046C519.075 239.165 516.807 242.213 512.668 244.608Z" fill="white"/>
<path opacity="0.4" d="M457.428 255.156L458.987 254.943C458.774 254.844 458.562 254.731 458.349 254.617L457.428 255.156Z" fill="#BBF39F"/>
<path opacity="0.4" d="M496.147 252.406H496.062L495.027 252.832C495.353 252.789 495.722 252.633 496.133 252.406H496.147Z" fill="#BBF39F"/>
<path opacity="0.4" d="M514.77 237.634C514.799 237.28 514.799 236.996 514.77 236.741C514.742 237.025 514.713 237.337 514.643 237.691L514.77 237.634Z" fill="#BBF39F"/>
<path opacity="0.8" d="M519.595 244.624C519.595 244.779 519.595 244.921 519.595 245.077C519.524 248.522 517.213 251.953 512.677 254.575L494.177 265.462C484.949 270.793 469.922 270.793 460.679 265.462L443.739 255.567C439.117 252.902 436.807 249.401 436.807 245.899V246.878C436.807 250.379 439.117 253.881 443.739 256.546L460.679 266.441C469.908 271.771 484.934 271.771 494.177 266.441L512.677 255.553C517.213 252.931 519.524 249.5 519.595 246.055C519.595 245.899 519.595 245.743 519.595 245.588V244.609V244.624Z" fill="#BBF39F"/>
<path opacity="0.4" d="M519.599 236.882V227.696L514.652 229.95C516.509 218.694 500.079 244.395 495.032 245.09L498.888 243.488L474.222 245.175L457.423 247.401L459.238 246.352C452.504 243.205 448.889 236.017 445.246 229.454L439.944 232.615L436.797 228.958V238.144C436.797 241.645 439.108 245.147 443.729 247.812L460.669 257.707C469.898 263.037 484.925 263.037 494.167 257.707L512.667 246.819C517.204 244.197 519.514 240.766 519.585 237.321C519.585 237.166 519.585 237.01 519.585 236.854L519.599 236.882Z" fill="#BBF39F"/>
<path d="M519.595 228.49V217.829L514.648 215.079C513.259 223.514 503.321 229.071 495.028 230.219L498.884 228.617L474.218 237.52L457.419 232.53L459.234 231.481C452.5 228.334 448.885 221.147 445.242 214.583L439.94 217.744L436.793 218.623V229.737C436.793 233.239 439.104 236.74 443.725 239.405L460.665 249.3C469.894 254.63 484.921 254.63 494.164 249.3L512.663 238.413C517.2 235.79 519.51 232.36 519.581 228.915C519.581 228.759 519.581 228.603 519.581 228.447L519.595 228.49Z" fill="url(#paint12_linear_1321_9627)"/>
<path d="M519.595 228.49V217.829L514.648 215.079C513.259 223.514 503.321 229.071 495.028 230.219L498.884 228.617L474.218 237.52L457.419 232.53L459.234 231.481C452.5 228.334 448.885 221.147 445.242 214.583L439.94 217.744L436.793 218.623V229.737C436.793 233.239 439.104 236.74 443.725 239.405L460.665 249.3C469.894 254.63 484.921 254.63 494.164 249.3L512.663 238.413C517.2 235.79 519.51 232.36 519.581 228.915C519.581 228.759 519.581 228.603 519.581 228.447L519.595 228.49Z" fill="url(#paint13_linear_1321_9627)"/>
<path opacity="0.3" d="M495.023 230.219L498.879 228.617L477.416 236.371V253.326C483.483 253.326 489.551 251.993 494.172 249.328L512.672 238.441C517.208 235.818 519.519 232.388 519.59 228.943C519.59 228.787 519.59 228.631 519.59 228.475V235.691V217.815L515.068 215.306H514.6C513.055 223.613 503.245 229.071 495.023 230.219Z" fill="#0F054C"/>
<path d="M460.676 238.385L443.736 228.49C434.507 223.159 434.507 214.484 443.736 209.153L462.236 198.266C471.464 192.936 486.491 192.936 495.734 198.266L512.674 208.161C521.903 213.491 521.903 222.167 512.674 227.497L494.174 238.385C484.946 243.715 469.919 243.715 460.676 238.385Z" fill="url(#paint14_linear_1321_9627)"/>
<path d="M477.524 239.703C472.151 239.703 466.779 238.527 462.682 236.159L447.783 227.455C443.785 225.144 441.588 222.054 441.588 218.765C441.588 215.476 443.785 212.386 447.783 210.075L464.043 200.506C472.222 195.786 485.534 195.786 493.728 200.506L508.627 209.21C512.624 211.521 514.822 214.611 514.822 217.9C514.822 221.203 512.624 224.28 508.627 226.59L492.367 236.159C488.27 238.527 482.897 239.703 477.524 239.703ZM462.909 235.776C470.961 240.426 484.088 240.426 492.14 235.776L508.4 226.208C512.256 223.982 514.382 221.033 514.382 217.9C514.382 214.767 512.256 211.819 508.4 209.593L493.501 200.889C485.449 196.239 472.322 196.239 464.27 200.889L448.01 210.458C444.154 212.684 442.027 215.632 442.027 218.765C442.027 221.898 444.154 224.847 448.01 227.072L462.909 235.776Z" fill="#19D3E9"/>
<path d="M512.668 227.497L494.168 238.384C484.939 243.714 469.912 243.714 460.67 238.384L443.729 228.489C439.604 226.108 437.322 223.06 436.882 219.927C436.343 223.783 438.612 227.766 443.729 230.715L460.67 240.61C469.898 245.94 484.925 245.94 494.168 240.61L512.668 229.723C517.771 226.774 520.053 222.805 519.515 218.935C519.075 222.053 516.807 225.101 512.668 227.497Z" fill="white"/>
<path opacity="0.4" d="M457.428 238.045L458.987 237.832C458.774 237.733 458.562 237.619 458.349 237.506L457.428 238.045Z" fill="#BBF39F"/>
<path opacity="0.4" d="M496.147 235.295H496.062L495.027 235.72C495.353 235.678 495.722 235.522 496.133 235.295H496.147Z" fill="#BBF39F"/>
<path opacity="0.4" d="M514.77 220.523C514.799 220.169 514.799 219.885 514.77 219.63C514.742 219.913 514.713 220.225 514.643 220.58L514.77 220.523Z" fill="#BBF39F"/>
<path opacity="0.8" d="M519.595 227.512C519.595 227.668 519.595 227.81 519.595 227.966C519.524 231.411 517.213 234.841 512.677 237.464L494.177 248.351C484.949 253.681 469.922 253.681 460.679 248.351L443.739 238.456C439.117 235.791 436.807 232.29 436.807 228.788V229.766C436.807 233.268 439.117 236.769 443.739 239.434L460.679 249.329C469.908 254.659 484.934 254.659 494.177 249.329L512.677 238.442C517.213 235.819 519.524 232.389 519.595 228.944C519.595 228.788 519.595 228.632 519.595 228.476V227.498V227.512Z" fill="#BBF39F"/>
<path opacity="0.4" d="M519.599 219.772V210.586L514.652 212.84C516.509 201.584 500.079 227.285 495.032 227.98L498.888 226.378L474.222 228.065L457.423 230.29L459.238 229.241C452.504 226.094 448.889 218.907 445.246 212.343L439.944 215.505L436.797 211.847V221.033C436.797 224.535 439.108 228.036 443.729 230.701L460.669 240.596C469.898 245.926 484.925 245.926 494.167 240.596L512.667 229.709C517.204 227.086 519.514 223.656 519.585 220.211C519.585 220.055 519.585 219.899 519.585 219.743L519.599 219.772Z" fill="#BBF39F"/>
<path d="M519.595 211.379V200.719L514.648 197.969C513.259 206.404 503.321 211.961 495.028 213.109L498.884 211.507L474.218 220.41L457.419 215.42L459.234 214.371C452.5 211.223 448.885 204.036 445.242 197.473L439.94 200.634L436.793 201.513V212.627C436.793 216.128 439.104 219.63 443.725 222.295L460.665 232.19C469.894 237.52 484.921 237.52 494.164 232.19L512.663 221.303C517.2 218.68 519.51 215.249 519.581 211.805C519.581 211.649 519.581 211.493 519.581 211.337L519.595 211.379Z" fill="url(#paint15_linear_1321_9627)"/>
<path d="M519.595 211.379V200.719L514.648 197.969C513.259 206.404 503.321 211.961 495.028 213.109L498.884 211.507L474.218 220.41L457.419 215.42L459.234 214.371C452.5 211.223 448.885 204.036 445.242 197.473L439.94 200.634L436.793 201.513V212.627C436.793 216.128 439.104 219.63 443.725 222.295L460.665 232.19C469.894 237.52 484.921 237.52 494.164 232.19L512.663 221.303C517.2 218.68 519.51 215.249 519.581 211.805C519.581 211.649 519.581 211.493 519.581 211.337L519.595 211.379Z" fill="url(#paint16_linear_1321_9627)"/>
<path opacity="0.3" d="M495.023 213.109L498.879 211.507L477.416 219.261V236.216C483.483 236.216 489.551 234.883 494.172 232.218L512.672 221.331C517.208 218.708 519.519 215.277 519.59 211.833C519.59 211.677 519.59 211.521 519.59 211.365V218.581V200.704L515.068 198.195H514.6C513.055 206.502 503.245 211.96 495.023 213.109Z" fill="#0F054C"/>
<path d="M460.676 221.274L443.736 211.379C434.507 206.049 434.507 197.373 443.736 192.043L462.236 181.156C471.464 175.826 486.491 175.826 495.734 181.156L512.674 191.051C521.903 196.381 521.903 205.057 512.674 210.387L494.174 221.274C484.946 226.604 469.919 226.604 460.676 221.274Z" fill="url(#paint17_linear_1321_9627)"/>
<path d="M477.524 222.593C472.151 222.593 466.779 221.416 462.682 219.049L447.783 210.345C443.785 208.034 441.588 204.944 441.588 201.655C441.588 198.366 443.785 195.276 447.783 192.965L464.043 183.396C472.222 178.675 485.534 178.675 493.728 183.396L508.627 192.1C512.624 194.411 514.822 197.501 514.822 200.79C514.822 204.079 512.624 207.169 508.627 209.48L492.367 219.049C488.27 221.416 482.897 222.593 477.524 222.593ZM462.909 218.666C470.975 223.316 484.088 223.316 492.14 218.666L508.4 209.097C512.256 206.872 514.382 203.923 514.382 200.79C514.382 197.657 512.256 194.708 508.4 192.483L493.501 183.779C485.449 179.129 472.322 179.129 464.27 183.779L448.01 193.348C444.154 195.573 442.027 198.522 442.027 201.655C442.027 204.788 444.154 207.736 448.01 209.962L462.909 218.666Z" fill="#19D3E9"/>
<path d="M512.668 210.387L494.168 221.274C484.939 226.604 469.912 226.604 460.67 221.274L443.729 211.379C439.604 208.997 437.322 205.949 436.882 202.817C436.343 206.687 438.612 210.656 443.729 213.605L460.67 223.499C469.898 228.83 484.925 228.83 494.168 223.499L512.668 212.612C517.771 209.664 520.053 205.694 519.515 201.824C519.075 204.943 516.807 207.991 512.668 210.387Z" fill="white"/>
<path opacity="0.4" d="M457.428 220.934L458.987 220.722C458.774 220.622 458.562 220.509 458.349 220.396L457.428 220.934Z" fill="#BBF39F"/>
<path opacity="0.4" d="M496.147 218.185H496.062L495.027 218.61C495.353 218.567 495.722 218.411 496.133 218.185H496.147Z" fill="#BBF39F"/>
<path opacity="0.4" d="M514.77 203.413C514.799 203.058 514.799 202.775 514.77 202.52C514.742 202.803 514.713 203.115 514.643 203.469L514.77 203.413Z" fill="#BBF39F"/>
<path opacity="0.8" d="M519.595 210.402C519.595 210.558 519.595 210.7 519.595 210.856C519.524 214.3 517.213 217.731 512.677 220.353L494.177 231.241C484.949 236.571 469.922 236.571 460.679 231.241L443.739 221.346C439.117 218.681 436.807 215.179 436.807 211.678V212.656C436.807 216.157 439.117 219.659 443.739 222.324L460.679 232.219C469.908 237.549 484.934 237.549 494.177 232.219L512.677 221.332C517.213 218.709 519.524 215.278 519.595 211.834C519.595 211.678 519.595 211.522 519.595 211.366V210.388V210.402Z" fill="#BBF39F"/>
<path opacity="0.4" d="M519.599 202.661V193.475L514.652 195.729C516.509 184.473 500.079 210.175 495.032 210.869L498.888 209.267L474.222 210.954L457.423 213.18L459.238 212.131C452.504 208.984 448.889 201.797 445.246 195.233L439.944 198.394L436.797 194.737V203.923C436.797 207.424 439.108 210.926 443.729 213.591L460.669 223.486C469.898 228.816 484.925 228.816 494.167 223.486L512.667 212.599C517.204 209.976 519.514 206.546 519.585 203.101C519.585 202.945 519.585 202.789 519.585 202.633L519.599 202.661Z" fill="#BBF39F"/>
<path d="M519.595 194.269V183.609L514.648 180.858C513.259 189.293 503.321 194.85 495.028 195.999L498.884 194.397L474.218 203.299L457.419 198.309L459.234 197.26C452.5 194.113 448.885 186.926 445.242 180.362L439.94 183.524L436.793 184.402V195.517C436.793 199.018 439.104 202.52 443.725 205.185L460.665 215.08C469.894 220.41 484.921 220.41 494.164 215.08L512.663 204.192C517.2 201.57 519.51 198.139 519.581 194.694C519.581 194.538 519.581 194.382 519.581 194.227L519.595 194.269Z" fill="url(#paint18_linear_1321_9627)"/>
<path d="M519.595 194.269V183.609L514.648 180.858C513.259 189.293 503.321 194.85 495.028 195.999L498.884 194.397L474.218 203.299L457.419 198.309L459.234 197.26C452.5 194.113 448.885 186.926 445.242 180.362L439.94 183.524L436.793 184.402V195.517C436.793 199.018 439.104 202.52 443.725 205.185L460.665 215.08C469.894 220.41 484.921 220.41 494.164 215.08L512.663 204.192C517.2 201.57 519.51 198.139 519.581 194.694C519.581 194.538 519.581 194.382 519.581 194.227L519.595 194.269Z" fill="url(#paint19_linear_1321_9627)"/>
<path opacity="0.3" d="M495.023 195.998L498.879 194.396L477.416 202.151V219.105C483.483 219.105 489.551 217.773 494.172 215.108L512.672 204.22C517.208 201.598 519.519 198.167 519.59 194.722C519.59 194.566 519.59 194.41 519.59 194.255V201.47V183.594L515.068 181.085H514.6C513.055 189.378 503.245 194.85 495.023 195.998Z" fill="#0F054C"/>
<path d="M460.676 204.164L443.736 194.269C434.507 188.939 434.507 180.263 443.736 174.933L462.236 164.046C471.464 158.715 486.491 158.715 495.734 164.046L512.674 173.94C521.903 179.271 521.903 187.946 512.674 193.277L494.174 204.164C484.946 209.494 469.919 209.494 460.676 204.164Z" fill="url(#paint20_linear_1321_9627)"/>
<path d="M477.524 205.482C472.151 205.482 466.779 204.306 462.682 201.938L447.783 193.234C443.785 190.924 441.588 187.833 441.588 184.544C441.588 181.256 443.785 178.165 447.783 175.854L464.043 166.286C472.222 161.565 485.534 161.565 493.728 166.286L508.627 174.99C512.624 177.3 514.822 180.391 514.822 183.68C514.822 186.983 512.624 190.059 508.627 192.37L492.367 201.938C488.27 204.306 482.897 205.482 477.524 205.482ZM462.909 201.556C470.975 206.205 484.088 206.205 492.14 201.556L508.4 191.987C512.256 189.761 514.382 186.813 514.382 183.68C514.382 180.547 512.256 177.598 508.4 175.372L493.501 166.668C485.435 162.019 472.322 162.019 464.27 166.668L448.01 176.237C444.154 178.463 442.027 181.411 442.027 184.544C442.027 187.677 444.154 190.626 448.01 192.852L462.909 201.556Z" fill="#19D3E9"/>
<path d="M512.668 193.276L494.168 204.163C484.939 209.494 469.912 209.494 460.67 204.163L443.729 194.269C439.604 191.887 437.322 188.839 436.882 185.706C436.343 189.562 438.612 193.546 443.729 196.494L460.67 206.389C469.898 211.719 484.925 211.719 494.168 206.389L512.668 195.502C517.771 192.553 520.053 188.584 519.515 184.714C519.075 187.833 516.807 190.88 512.668 193.276Z" fill="white"/>
<path opacity="0.4" d="M457.428 203.824L458.987 203.611C458.774 203.512 458.562 203.399 458.349 203.285L457.428 203.824Z" fill="#BBF39F"/>
<path opacity="0.4" d="M496.147 201.074H496.062L495.027 201.5C495.353 201.457 495.722 201.301 496.133 201.074H496.147Z" fill="#BBF39F"/>
<path opacity="0.4" d="M514.77 186.302C514.799 185.948 514.799 185.664 514.77 185.409C514.742 185.693 514.713 186.005 514.643 186.359L514.77 186.302Z" fill="#BBF39F"/>
<path opacity="0.8" d="M519.595 193.292C519.595 193.447 519.595 193.589 519.595 193.745C519.524 197.19 517.213 200.621 512.677 203.243L494.177 214.13C484.949 219.461 469.922 219.461 460.679 214.13L443.739 204.235C439.117 201.57 436.807 198.069 436.807 194.567V195.546C436.807 199.047 439.117 202.548 443.739 205.214L460.679 215.109C469.908 220.439 484.934 220.439 494.177 215.109L512.677 204.221C517.213 201.599 519.524 198.168 519.595 194.723C519.595 194.567 519.595 194.411 519.595 194.255V193.277V193.292Z" fill="#BBF39F"/>
<path opacity="0.4" d="M519.599 185.551V176.365L514.652 178.619C516.509 167.363 500.079 193.064 495.032 193.759L498.888 192.157L474.222 193.844L457.423 196.07L459.238 195.021C452.504 191.873 448.889 184.686 445.246 178.123L439.944 181.284L436.797 177.626V186.813C436.797 190.314 439.108 193.816 443.729 196.481L460.669 206.376C469.898 211.706 484.925 211.706 494.167 206.376L512.667 195.488C517.204 192.866 519.514 189.435 519.585 185.99C519.585 185.834 519.585 185.678 519.585 185.523L519.599 185.551Z" fill="#BBF39F"/>
<path d="M519.595 177.159V166.498L514.648 163.748C513.259 172.183 503.321 177.74 495.028 178.888L498.884 177.286L474.218 186.189L457.419 181.199L459.234 180.15C452.5 177.003 448.885 169.815 445.242 163.252L439.94 166.413L436.793 167.292V178.406C436.793 181.908 439.104 185.409 443.725 188.074L460.665 197.969C469.894 203.299 484.921 203.299 494.164 197.969L512.663 187.082C517.2 184.459 519.51 181.029 519.581 177.584C519.581 177.428 519.581 177.272 519.581 177.116L519.595 177.159Z" fill="url(#paint21_linear_1321_9627)"/>
<path d="M519.595 177.159V166.498L514.648 163.748C513.259 172.183 503.321 177.74 495.028 178.888L498.884 177.286L474.218 186.189L457.419 181.199L459.234 180.15C452.5 177.003 448.885 169.815 445.242 163.252L439.94 166.413L436.793 167.292V178.406C436.793 181.908 439.104 185.409 443.725 188.074L460.665 197.969C469.894 203.299 484.921 203.299 494.164 197.969L512.663 187.082C517.2 184.459 519.51 181.029 519.581 177.584C519.581 177.428 519.581 177.272 519.581 177.116L519.595 177.159Z" fill="url(#paint22_linear_1321_9627)"/>
<path opacity="0.3" d="M495.023 178.888L498.879 177.286L477.416 185.04V201.995C483.483 201.995 489.551 200.662 494.172 197.997L512.672 187.11C517.208 184.487 519.519 181.057 519.59 177.612C519.59 177.456 519.59 177.3 519.59 177.144V184.36V166.484L515.068 163.975H514.6C513.055 172.282 503.245 177.74 495.023 178.888Z" fill="#0F054C"/>
<path d="M460.676 187.053L443.736 177.159C434.507 171.828 434.507 163.153 443.736 157.822L462.236 146.935C471.464 141.605 486.491 141.605 495.734 146.935L512.674 156.83C521.903 162.16 521.903 170.836 512.674 176.166L494.174 187.053C484.946 192.384 469.919 192.384 460.676 187.053Z" fill="url(#paint23_linear_1321_9627)"/>
<path d="M477.524 188.372C472.151 188.372 466.779 187.196 462.682 184.828L447.783 176.124C443.785 173.813 441.588 170.723 441.588 167.434C441.588 164.145 443.785 161.055 447.783 158.744L464.043 149.175C472.222 144.455 485.534 144.455 493.728 149.175L508.627 157.879C512.624 160.19 514.822 163.28 514.822 166.569C514.822 169.872 512.624 172.949 508.627 175.259L492.367 184.828C488.27 187.196 482.897 188.372 477.524 188.372ZM462.909 184.445C470.975 189.095 484.088 189.095 492.14 184.445L508.4 174.876C512.256 172.651 514.382 169.702 514.382 166.569C514.382 163.436 512.256 160.488 508.4 158.262L493.501 149.558C485.449 144.908 472.322 144.908 464.27 149.558L448.01 159.127C444.154 161.353 442.027 164.301 442.027 167.434C442.027 170.567 444.154 173.516 448.01 175.741L462.909 184.445Z" fill="#19D3E9"/>
<path d="M512.668 176.166L494.168 187.053C484.939 192.383 469.912 192.383 460.67 187.053L443.729 177.158C439.604 174.777 437.322 171.729 436.882 168.596C436.343 172.452 438.612 176.435 443.729 179.384L460.67 189.279C469.898 194.609 484.925 194.609 494.168 189.279L512.668 178.392C517.771 175.443 520.053 171.474 519.515 167.604C519.075 170.722 516.807 173.77 512.668 176.166Z" fill="white"/>
<path opacity="0.4" d="M457.428 186.713L458.987 186.501C458.774 186.402 458.562 186.288 458.349 186.175L457.428 186.713Z" fill="#BBF39F"/>
<path opacity="0.4" d="M496.147 183.964H496.062L495.027 184.389C495.353 184.347 495.722 184.191 496.133 183.964H496.147Z" fill="#BBF39F"/>
<path opacity="0.4" d="M514.77 169.192C514.799 168.838 514.799 168.554 514.77 168.299C514.742 168.582 514.713 168.894 514.643 169.249L514.77 169.192Z" fill="#BBF39F"/>
<path opacity="0.8" d="M519.595 176.181C519.595 176.337 519.595 176.479 519.595 176.635C519.524 180.08 517.213 183.51 512.677 186.133L494.177 197.02C484.949 202.35 469.922 202.35 460.679 197.02L443.739 187.125C439.117 184.46 436.807 180.958 436.807 177.457V178.435C436.807 181.937 439.117 185.438 443.739 188.103L460.679 197.998C469.908 203.328 484.934 203.328 494.177 197.998L512.677 187.111C517.213 184.488 519.524 181.058 519.595 177.613C519.595 177.457 519.595 177.301 519.595 177.145V176.167V176.181Z" fill="#BBF39F"/>
<path opacity="0.4" d="M606.223 286.768V176.407L600.056 179.228C602.381 165.18 581.854 197.26 575.56 198.139L505.02 239.392L474.229 241.504L375.961 199.798L378.229 198.479C369.837 194.553 365.3 185.579 360.764 177.4L354.144 181.341L350.217 176.762V287.122C350.217 291.489 353.095 295.869 358.864 299.186L457.317 356.032C468.842 362.681 487.597 362.681 499.122 356.032L597.575 299.186C603.246 295.912 606.123 291.63 606.223 287.335C606.223 287.137 606.223 287.165 606.223 286.981V286.768Z" fill="#BBF39F"/>
<path opacity="0.4" d="M606.223 245.417C606.223 245.601 606.237 245.8 606.223 245.984C606.138 250.279 603.246 254.561 597.575 257.835L499.122 314.681C487.597 321.33 468.842 321.33 457.317 314.681L358.864 257.835C353.095 254.504 350.217 250.138 350.217 245.771V287.137C350.217 291.503 353.095 295.884 358.864 299.201L457.317 356.047C468.842 362.696 487.597 362.696 499.122 356.047L597.575 299.201C603.246 295.926 606.123 291.645 606.223 287.35C606.223 287.151 606.223 286.967 606.223 286.769V245.417Z" fill="#7BFFF5"/>
<path opacity="0.8" d="M606.223 245.275C606.223 245.459 606.237 245.658 606.223 245.842C606.138 250.137 603.246 254.418 597.575 257.693L499.122 314.539C487.597 321.188 468.842 321.188 457.317 314.539L358.864 257.693C353.095 254.362 350.217 249.996 350.217 245.629V248.025C350.217 252.391 353.095 256.772 358.864 260.089L457.317 316.935C468.842 323.584 487.597 323.584 499.122 316.935L597.575 260.089C603.246 256.814 606.123 252.533 606.223 248.238C606.223 248.039 606.223 247.855 606.223 247.657V245.261V245.275Z" fill="#7BFFF5"/>
<path d="M606.221 177.4V164.103L600.054 160.672C598.311 171.205 585.921 178.137 575.558 179.583L505.018 220.836L474.227 231.95L375.959 181.242L378.227 179.924C369.835 175.997 365.298 167.023 360.762 158.844L354.142 162.785L350.215 163.89V177.769C350.215 182.135 353.093 186.515 358.862 189.833L457.315 246.679C468.84 253.327 487.595 253.327 499.12 246.679L597.573 189.833C603.244 186.558 606.122 182.277 606.221 177.981C606.221 177.783 606.221 177.599 606.221 177.4Z" fill="url(#paint24_linear_1321_9627)"/>
<path d="M606.221 177.4V164.103L600.054 160.672C598.311 171.205 585.921 178.137 575.558 179.583L505.018 220.836L474.227 231.95L375.959 181.242L378.227 179.924C369.835 175.997 365.298 167.023 360.762 158.844L354.142 162.785L350.215 163.89V177.769C350.215 182.135 353.093 186.515 358.862 189.833L457.315 246.679C468.84 253.327 487.595 253.327 499.12 246.679L597.573 189.833C603.244 186.558 606.122 182.277 606.221 177.981C606.221 177.783 606.221 177.599 606.221 177.4Z" fill="url(#paint25_linear_1321_9627)"/>
<path opacity="0.3" d="M575.554 179.583L505.013 220.835L478.221 230.518V251.668C485.791 251.668 493.361 250.01 499.13 246.678L597.583 189.832C603.254 186.558 606.131 182.276 606.231 177.981C606.231 177.783 606.231 177.598 606.231 177.4V285.521V164.103L600.589 160.97H599.993C598.065 171.332 585.817 178.151 575.554 179.583Z" fill="#0F054C"/>
<path d="M414.161 168.98C414.728 168.484 415.38 168.016 416.132 167.576L467.336 138.019C473.332 134.56 483.085 134.56 489.082 138.019L540.286 167.576C541.037 168.016 541.703 168.484 542.256 168.98C546.183 165.535 545.517 160.857 540.286 157.823L489.082 128.266C483.085 124.807 473.332 124.807 467.336 128.266L416.132 157.823C410.887 160.857 410.234 165.535 414.161 168.98Z" fill="url(#paint26_radial_1321_9627)"/>
<path d="M597.57 152.039L499.117 95.1929C487.592 88.5443 468.837 88.5302 457.312 95.1929L358.859 152.039C347.334 158.688 347.334 169.518 358.859 176.181L457.312 233.027C468.837 239.676 487.592 239.676 499.117 233.027L597.57 176.181C609.095 169.532 609.095 158.702 597.57 152.039ZM540.284 170.383L489.08 199.94C483.084 203.399 473.331 203.399 467.334 199.94L416.13 170.383C410.134 166.924 410.134 161.282 416.13 157.823L467.334 128.266C473.331 124.807 483.084 124.807 489.08 128.266L540.284 157.823C546.281 161.282 546.281 166.91 540.284 170.383Z" fill="url(#paint27_linear_1321_9627)"/>
<path d="M586.559 153.145L497.193 101.544C486.731 95.5049 469.706 95.5049 459.244 101.544L369.878 153.145C359.416 159.184 359.416 169.022 369.878 175.061L459.244 226.662C469.706 232.701 486.731 232.701 497.193 226.662L586.559 175.061C597.021 169.022 597.021 159.184 586.559 153.145ZM554.294 171.801L491.551 208.035C484.208 212.273 472.243 212.273 464.9 208.035L402.142 171.801C394.799 167.562 394.799 160.658 402.142 156.42L464.886 120.185C472.229 115.947 484.194 115.947 491.537 120.185L554.294 156.42C561.638 160.658 561.638 167.562 554.294 171.801Z" fill="#251C72"/>
<path opacity="0.4" d="M586.559 153.145L497.193 101.544C486.731 95.5049 469.706 95.5049 459.244 101.544L369.878 153.145C359.416 159.184 359.416 169.022 369.878 175.061L459.244 226.662C469.706 232.701 486.731 232.701 497.193 226.662L586.559 175.061C597.021 169.022 597.021 159.184 586.559 153.145ZM554.294 171.801L491.551 208.035C484.208 212.273 472.243 212.273 464.9 208.035L402.142 171.801C394.799 167.562 394.799 160.658 402.142 156.42L464.886 120.185C472.229 115.947 484.194 115.947 491.537 120.185L554.294 156.42C561.638 160.658 561.638 167.562 554.294 171.801Z" fill="#BBF39F"/>
<path d="M597.572 176.167L499.12 233.013C487.594 239.661 468.839 239.661 457.314 233.013L358.861 176.167C353.715 173.19 350.866 169.376 350.313 165.492C349.633 170.312 352.482 175.274 358.861 178.959L457.314 235.806C468.839 242.454 487.594 242.454 499.12 235.806L597.572 178.959C603.952 175.274 606.787 170.326 606.106 165.506C605.554 169.405 602.718 173.218 597.572 176.181V176.167Z" fill="white"/>
<path d="M478.215 221.786C472.289 221.786 466.349 220.482 461.841 217.873L385.361 173.715C380.938 171.163 378.5 167.747 378.5 164.103C378.5 160.46 380.938 157.044 385.361 154.492L461.841 110.333C470.871 105.117 485.572 105.117 494.602 110.333L571.082 154.492C575.505 157.044 577.929 160.46 577.929 164.103C577.929 167.747 575.491 171.163 571.082 173.715L494.602 217.873C490.08 220.482 484.154 221.786 478.229 221.786H478.215ZM478.215 106.96C472.388 106.96 466.548 108.235 462.111 110.801L385.631 154.96C381.392 157.412 379.053 160.659 379.053 164.103C379.053 167.548 381.392 170.794 385.631 173.247L462.111 217.405C470.985 222.537 485.444 222.537 494.319 217.405L570.799 173.247C575.037 170.794 577.376 167.548 577.376 164.118C577.376 160.687 575.037 157.426 570.799 154.974L494.319 110.815C489.881 108.25 484.041 106.974 478.215 106.974V106.96Z" fill="#BBF39F"/>
<g opacity="0.4">
<path d="M467.338 199.94L416.134 170.383C410.138 166.924 410.138 161.282 416.134 157.823L467.338 128.266C473.335 124.807 483.088 124.807 489.084 128.266L540.288 157.823C546.285 161.282 546.285 166.91 540.288 170.383L489.084 199.94C483.088 203.399 473.335 203.399 467.338 199.94Z" fill="#BBF39F"/>
</g>
<path opacity="0.6" d="M519.591 240.738C519.591 240.894 519.591 241.05 519.591 241.206C519.52 244.651 517.209 248.082 512.673 250.704L494.173 261.591C484.945 266.922 469.918 266.922 460.675 261.591L443.735 251.696C439.113 249.031 436.803 245.53 436.803 242.028V272.379C436.803 275.881 439.113 279.382 443.735 282.047L460.675 291.942C469.904 297.273 484.931 297.273 494.173 291.942L512.673 281.055C517.209 278.432 519.52 275.002 519.591 271.557C519.591 271.401 519.591 271.245 519.591 271.089V269.913V262.697V253.979V252.802V245.587V240.738Z" fill="#7BFFF5"/>
<path style="mix-blend-mode:lighten" opacity="0.8" d="M543.531 167.589C544.353 166.47 544.779 165.293 544.779 164.088V35.3691H543.716L543.531 167.589Z" fill="url(#paint28_linear_1321_9627)"/>
<path style="mix-blend-mode:lighten" opacity="0.8" d="M412.886 167.589C412.064 166.47 411.639 165.293 411.639 164.088V35.3691H412.702L412.886 167.589Z" fill="url(#paint29_linear_1321_9627)"/>
<path d="M511.464 234.983L498.125 242.68C497.742 242.907 497.416 242.68 497.416 242.142C497.416 241.617 497.728 241.022 498.125 240.795L511.464 233.097C511.847 232.87 512.173 233.097 512.173 233.636C512.173 234.16 511.861 234.756 511.464 234.983Z" fill="#BBF39F"/>
<path d="M538.92 219.134L525.58 226.832C525.197 227.058 524.871 226.832 524.871 226.293C524.871 225.768 525.183 225.173 525.58 224.946L538.92 217.249C539.302 217.022 539.628 217.249 539.628 217.787C539.628 218.312 539.317 218.907 538.92 219.134Z" fill="#BBF39F"/>
<path d="M566.386 203.285L553.047 210.983C552.664 211.21 552.338 210.983 552.338 210.444C552.338 209.92 552.65 209.324 553.047 209.098L566.386 201.4C566.769 201.173 567.095 201.4 567.095 201.939C567.095 202.463 566.783 203.059 566.386 203.285Z" fill="#BBF39F"/>
<path d="M593.841 187.422L580.502 195.12C580.119 195.346 579.793 195.12 579.793 194.581C579.793 194.056 580.105 193.461 580.502 193.234L593.841 185.537C594.224 185.31 594.55 185.537 594.55 186.075C594.55 186.6 594.238 187.195 593.841 187.422Z" fill="#BBF39F"/>
<path d="M511.464 355.565L498.125 363.262C497.742 363.489 497.416 363.262 497.416 362.724C497.416 362.199 497.728 361.604 498.125 361.377L511.464 353.679C511.847 353.452 512.173 353.679 512.173 354.218C512.173 354.742 511.861 355.338 511.464 355.565Z" fill="#BBF39F"/>
<path d="M538.92 339.702L525.58 347.4C525.197 347.627 524.871 347.4 524.871 346.861C524.871 346.337 525.183 345.741 525.58 345.515L538.92 337.817C539.302 337.59 539.628 337.817 539.628 338.356C539.628 338.88 539.317 339.476 538.92 339.702Z" fill="#BBF39F"/>
<path d="M566.386 323.853L553.047 331.55C552.664 331.777 552.338 331.55 552.338 331.012C552.338 330.487 552.65 329.892 553.047 329.665L566.386 321.967C566.769 321.74 567.095 321.967 567.095 322.506C567.095 323.031 566.783 323.626 566.386 323.853Z" fill="#BBF39F"/>
<path d="M593.841 308.004L580.502 315.702C580.119 315.929 579.793 315.702 579.793 315.163C579.793 314.638 580.105 314.043 580.502 313.816L593.841 306.119C594.224 305.892 594.55 306.119 594.55 306.657C594.55 307.182 594.238 307.777 593.841 308.004Z" fill="#BBF39F"/>
<path d="M444.574 234.983L457.914 242.68C458.296 242.907 458.623 242.68 458.623 242.142C458.623 241.617 458.311 241.022 457.914 240.795L444.574 233.097C444.191 232.87 443.865 233.097 443.865 233.636C443.865 234.16 444.177 234.756 444.574 234.983Z" fill="#BBF39F"/>
<path d="M417.119 219.134L430.459 226.832C430.841 227.058 431.167 226.832 431.167 226.293C431.167 225.768 430.856 225.173 430.459 224.946L417.119 217.249C416.736 217.022 416.41 217.249 416.41 217.787C416.41 218.312 416.722 218.907 417.119 219.134Z" fill="#BBF39F"/>
<path d="M389.652 203.285L402.992 210.983C403.375 211.21 403.701 210.983 403.701 210.444C403.701 209.92 403.389 209.324 402.992 209.098L389.652 201.4C389.269 201.173 388.943 201.4 388.943 201.939C388.943 202.463 389.255 203.059 389.652 203.285Z" fill="#BBF39F"/>
<path d="M362.197 187.422L375.537 195.12C375.92 195.346 376.246 195.12 376.246 194.581C376.246 194.056 375.934 193.461 375.537 193.234L362.197 185.537C361.814 185.31 361.488 185.537 361.488 186.075C361.488 186.6 361.8 187.195 362.197 187.422Z" fill="#BBF39F"/>
<path d="M444.574 355.565L457.914 363.262C458.296 363.489 458.623 363.262 458.623 362.724C458.623 362.199 458.311 361.604 457.914 361.377L444.574 353.679C444.191 353.452 443.865 353.679 443.865 354.218C443.865 354.742 444.177 355.338 444.574 355.565Z" fill="#BBF39F"/>
<path d="M417.119 339.702L430.459 347.4C430.841 347.627 431.167 347.4 431.167 346.861C431.167 346.337 430.856 345.741 430.459 345.515L417.119 337.817C416.736 337.59 416.41 337.817 416.41 338.356C416.41 338.88 416.722 339.476 417.119 339.702Z" fill="#BBF39F"/>
<path d="M389.652 323.853L402.992 331.55C403.375 331.777 403.701 331.55 403.701 331.012C403.701 330.487 403.389 329.892 402.992 329.665L389.652 321.967C389.269 321.74 388.943 321.967 388.943 322.506C388.943 323.031 389.255 323.626 389.652 323.853Z" fill="#BBF39F"/>
<path d="M362.197 308.004L375.537 315.702C375.92 315.929 376.246 315.702 376.246 315.163C376.246 314.638 375.934 314.043 375.537 313.816L362.197 306.119C361.814 305.892 361.488 306.119 361.488 306.657C361.488 307.182 361.8 307.777 362.197 308.004Z" fill="#BBF39F"/>
<g opacity="0.3">
<path d="M729.09 247.088V239.065L726.878 237.831C726.254 241.616 721.803 244.111 718.075 244.622L692.714 259.45L681.642 263.447L646.316 245.217L647.138 244.749C644.118 243.346 642.488 240.114 640.858 237.165L638.476 238.583L637.059 238.98V247.202C637.059 248.775 638.093 250.349 640.163 251.54L675.561 271.967C679.7 274.363 686.448 274.363 690.587 271.967L725.985 251.54C728.026 250.363 729.061 248.818 729.09 247.273C729.09 247.202 729.09 247.131 729.09 247.06V247.088Z" fill="url(#paint30_linear_1321_9627)"/>
<path opacity="0.3" d="M718.065 244.636L692.704 259.465L683.064 262.938V273.782C685.786 273.782 688.508 273.187 690.578 271.982L725.975 251.554C728.017 250.378 729.052 248.833 729.08 247.287C729.08 247.217 729.08 247.146 729.08 247.075V239.051L727.053 237.917H726.84C726.145 241.645 721.751 244.098 718.051 244.608L718.065 244.636Z" fill="#0F054C"/>
<path d="M675.561 263.845L640.163 243.417C636.024 241.021 636.024 237.137 640.163 234.741L675.561 214.313C679.7 211.918 686.448 211.918 690.587 214.313L725.985 234.741C730.125 237.137 730.125 241.021 725.985 243.417L690.587 263.845C686.448 266.24 679.7 266.24 675.561 263.845Z" fill="url(#paint31_linear_1321_9627)"/>
<g opacity="0.3">
<path d="M675.559 263.845L640.161 243.417C636.022 241.021 636.022 237.137 640.161 234.741L675.559 214.313C679.698 211.918 686.446 211.918 690.586 214.313L725.983 234.741C730.123 237.137 730.123 241.021 725.983 243.417L690.586 263.845C686.446 266.24 679.698 266.24 675.559 263.845Z" fill="#0F054C"/>
</g>
</g>
<path d="M683.072 250.35C680.648 250.35 678.238 249.825 676.396 248.762L640.998 228.334C639.155 227.271 638.148 225.839 638.148 224.308C638.148 222.777 639.155 221.346 640.998 220.282L676.396 199.855C680.081 197.728 686.064 197.728 689.735 199.855L725.133 220.282C726.976 221.346 727.982 222.777 727.982 224.308C727.982 225.839 726.976 227.285 725.133 228.334L689.735 248.762C687.892 249.825 685.482 250.35 683.058 250.35H683.072ZM676.707 248.223C680.209 250.251 685.922 250.251 689.423 248.223L724.821 227.796C726.465 226.846 727.359 225.613 727.359 224.308C727.359 223.004 726.451 221.757 724.821 220.821L689.423 200.379C685.922 198.352 680.209 198.352 676.707 200.379L641.31 220.807C639.665 221.757 638.772 222.99 638.772 224.294C638.772 225.598 639.68 226.846 641.31 227.781L676.707 248.209V248.223Z" fill="#BBF39F"/>
<path opacity="0.4" d="M729.096 216.454V204.333L726.884 203.1C726.26 206.885 721.809 209.38 718.081 209.89L692.72 224.718L681.648 228.716L646.321 210.486L647.144 210.018C644.124 208.614 642.494 205.382 640.864 202.434L638.482 203.851L637.064 204.248V216.567C637.064 218.141 638.099 219.714 640.169 220.905L675.567 241.333C679.706 243.729 686.454 243.729 690.593 241.333L725.991 220.905C728.032 219.728 729.067 218.183 729.096 216.638C729.096 216.567 729.096 216.496 729.096 216.425V216.454Z" fill="#BBF39F"/>
<path d="M729.099 205.68V197.656L726.888 196.423C726.264 200.208 721.813 202.703 718.085 203.213L692.724 218.042L681.652 222.039L646.325 203.809L647.148 203.341C644.128 201.938 642.498 198.705 640.868 195.757L638.486 197.174L637.068 197.571V205.794C637.068 207.367 638.103 208.941 640.173 210.131L675.571 230.559C679.71 232.955 686.458 232.955 690.597 230.559L725.995 210.131C728.036 208.955 729.071 207.41 729.099 205.864C729.099 205.794 729.099 205.723 729.099 205.652V205.68Z" fill="url(#paint32_linear_1321_9627)"/>
<path opacity="0.3" d="M718.063 203.228L692.702 218.056L683.062 221.53V232.374C685.784 232.374 688.506 231.779 690.576 230.574L725.973 210.146C728.015 208.97 729.05 207.424 729.078 205.879C729.078 205.808 729.078 205.737 729.078 205.667V197.643L727.051 196.509H726.838C726.144 200.237 721.749 202.69 718.049 203.2L718.063 203.228Z" fill="#0F054C"/>
<path d="M675.571 222.436L640.173 202.009C636.034 199.613 636.034 195.729 640.173 193.333L675.571 172.905C679.71 170.509 686.458 170.509 690.597 172.905L725.995 193.333C730.134 195.729 730.134 199.613 725.995 202.009L690.597 222.436C686.458 224.832 679.71 224.832 675.571 222.436Z" fill="url(#paint33_linear_1321_9627)"/>
<path d="M725.989 201.994L690.592 222.422C686.452 224.818 679.704 224.818 675.565 222.422L640.167 201.994C638.31 200.931 637.29 199.556 637.091 198.152C636.85 199.882 637.871 201.668 640.167 202.986L675.565 223.414C679.704 225.81 686.452 225.81 690.592 223.414L725.989 202.986C728.286 201.668 729.307 199.882 729.066 198.152C728.867 199.556 727.846 200.917 725.989 201.994Z" fill="white"/>
<g opacity="0.3">
<path d="M296.644 415.048V407.025L294.433 405.791C293.809 409.576 289.358 412.071 285.63 412.582L260.269 427.41L249.197 431.407L213.87 413.177L214.692 412.709C211.673 411.306 210.043 408.074 208.412 405.125L206.031 406.543L204.613 406.94V415.162C204.613 416.735 205.648 418.309 207.718 419.5L243.116 439.927C247.255 442.323 254.003 442.323 258.142 439.927L293.54 419.5C295.581 418.323 296.616 416.778 296.644 415.233C296.644 415.162 296.644 415.091 296.644 415.02V415.048Z" fill="url(#paint34_linear_1321_9627)"/>
<path opacity="0.3" d="M285.62 412.582L260.259 427.41L250.619 430.883V441.728C253.341 441.728 256.063 441.132 258.132 439.927L293.53 419.5C295.571 418.323 296.606 416.778 296.635 415.233C296.635 415.162 296.635 415.091 296.635 415.02V406.996L294.608 405.862H294.395C293.7 409.591 289.306 412.043 285.606 412.553L285.62 412.582Z" fill="#0F054C"/>
<path d="M243.116 431.79L207.718 411.362C203.578 408.966 203.578 405.082 207.718 402.686L243.116 382.259C247.255 379.863 254.003 379.863 258.142 382.259L293.54 402.686C297.679 405.082 297.679 408.966 293.54 411.362L258.142 431.79C254.003 434.186 247.255 434.186 243.116 431.79Z" fill="url(#paint35_linear_1321_9627)"/>
<g opacity="0.3">
<path d="M243.117 431.79L207.72 411.362C203.58 408.966 203.58 405.082 207.72 402.686L243.117 382.259C247.257 379.863 254.005 379.863 258.144 382.259L293.542 402.686C297.681 405.082 297.681 408.966 293.542 411.362L258.144 431.79C254.005 434.186 247.257 434.186 243.117 431.79Z" fill="#0F054C"/>
</g>
</g>
<path d="M250.619 418.295C248.209 418.295 245.785 417.77 243.942 416.707L208.545 396.265C206.702 395.202 205.695 393.77 205.695 392.239C205.695 390.708 206.702 389.262 208.545 388.213L243.942 367.785C247.614 365.659 253.61 365.659 257.282 367.785L292.68 388.213C294.523 389.276 295.529 390.708 295.529 392.239C295.529 393.77 294.523 395.202 292.68 396.265L257.282 416.707C255.439 417.77 253.029 418.295 250.605 418.295H250.619ZM244.254 416.168C247.756 418.195 253.469 418.195 256.97 416.168L292.368 395.74C294.012 394.791 294.905 393.557 294.905 392.253C294.905 390.949 293.998 389.701 292.368 388.766L256.97 368.338C253.469 366.311 247.756 366.311 244.254 368.338L208.857 388.766C207.212 389.716 206.319 390.949 206.319 392.253C206.319 393.557 207.226 394.805 208.857 395.74L244.254 416.168Z" fill="#BBF39F"/>
<path opacity="0.4" d="M296.64 384.399V372.278L294.429 371.045C293.805 374.83 289.354 377.325 285.626 377.836L260.265 392.664L249.193 396.661L213.866 378.431L214.689 377.963C211.669 376.56 210.039 373.328 208.409 370.379L206.027 371.797L204.609 372.193V384.512C204.609 386.086 205.644 387.66 207.714 388.85L243.112 409.278C247.251 411.674 253.999 411.674 258.138 409.278L293.536 388.85C295.577 387.674 296.612 386.129 296.64 384.583C296.64 384.512 296.64 384.442 296.64 384.371V384.399Z" fill="#BBF39F"/>
<path d="M296.64 373.625V365.602L294.429 364.368C293.805 368.153 289.354 370.648 285.626 371.159L260.265 385.987L249.193 389.985L213.866 371.754L214.689 371.286C211.669 369.883 210.039 366.651 208.409 363.702L206.027 365.12L204.609 365.517V373.739C204.609 375.312 205.644 376.886 207.714 378.077L243.112 398.504C247.251 400.9 253.999 400.9 258.138 398.504L293.536 378.077C295.577 376.9 296.612 375.355 296.64 373.81C296.64 373.739 296.64 373.668 296.64 373.597V373.625Z" fill="url(#paint36_linear_1321_9627)"/>
<path opacity="0.3" d="M285.604 371.174L260.243 386.002L250.604 389.475V400.32C253.325 400.32 256.047 399.724 258.117 398.519L293.515 378.091C295.556 376.915 296.591 375.37 296.619 373.825C296.619 373.754 296.619 373.683 296.619 373.612V365.588L294.592 364.454H294.379C293.685 368.182 289.29 370.635 285.59 371.145L285.604 371.174Z" fill="#0F054C"/>
<path d="M243.112 390.382L207.714 369.954C203.575 367.558 203.575 363.674 207.714 361.278L243.112 340.851C247.251 338.455 253.999 338.455 258.138 340.851L293.536 361.278C297.675 363.674 297.675 367.558 293.536 369.954L258.138 390.382C253.999 392.778 247.251 392.778 243.112 390.382Z" fill="url(#paint37_linear_1321_9627)"/>
<path d="M293.53 369.954L258.133 390.382C253.993 392.778 247.245 392.778 243.106 390.382L207.708 369.954C205.851 368.891 204.831 367.516 204.632 366.112C204.391 367.842 205.412 369.628 207.708 370.946L243.106 391.374C247.245 393.77 253.993 393.77 258.133 391.374L293.53 370.946C295.827 369.628 296.848 367.842 296.607 366.112C296.408 367.516 295.387 368.877 293.53 369.954Z" fill="white"/>
<path d="M251.165 387.079C249.123 387.079 247.068 386.554 245.253 385.491L213.527 367.246C212.804 366.835 212.379 366.098 212.379 365.262C212.379 364.425 212.804 363.688 213.527 363.277L243.382 346.294C247.493 343.927 252.611 343.927 256.722 346.294L287.696 364.099C288.419 364.51 288.845 365.248 288.845 366.084C288.845 366.92 288.419 367.643 287.696 368.069L257.09 385.477C255.262 386.526 253.22 387.05 251.179 387.05L251.165 387.079ZM250.045 345.486C247.904 345.486 245.764 346.039 243.85 347.13L213.995 364.113C213.584 364.354 213.329 364.78 213.329 365.262C213.329 365.744 213.584 366.169 213.995 366.41L245.721 384.655C249.081 386.597 253.249 386.597 256.594 384.655L287.2 367.246C287.611 367.005 287.867 366.58 287.867 366.098C287.867 365.616 287.611 365.177 287.2 364.936L256.226 347.13C254.312 346.025 252.171 345.472 250.031 345.472L250.045 345.486Z" fill="#BBF39F"/>
<g opacity="0.11">
<path d="M256.49 328.928C252.506 326.632 247.601 326.632 243.618 328.928L213.763 345.911C212.558 346.606 212.558 348.35 213.763 349.044L245.489 367.289C249.005 369.316 253.329 369.316 256.844 367.289L287.45 349.881C288.655 349.186 288.655 347.442 287.45 346.748L256.476 328.943L256.49 328.928Z" fill="url(#paint38_linear_1321_9627)"/>
</g>
<g opacity="0.11">
<path d="M256.49 316.013C252.506 313.717 247.601 313.717 243.618 316.013L213.763 332.996C212.558 333.691 212.558 335.435 213.763 336.129L245.489 354.374C249.005 356.401 253.329 356.401 256.844 354.374L287.45 336.966C288.655 336.271 288.655 334.527 287.45 333.833L256.476 316.028L256.49 316.013Z" fill="url(#paint39_linear_1321_9627)"/>
</g>
<g opacity="0.11">
<path d="M256.49 303.086C252.506 300.789 247.601 300.789 243.618 303.086L213.763 320.069C212.558 320.763 212.558 322.507 213.763 323.202L245.489 341.446C249.005 343.473 253.329 343.473 256.844 341.446L287.45 324.038C288.655 323.343 288.655 321.6 287.45 320.905L256.476 303.1L256.49 303.086Z" fill="url(#paint40_linear_1321_9627)"/>
</g>
<g opacity="0.11">
<path d="M256.49 290.171C252.506 287.874 247.601 287.874 243.618 290.171L213.763 307.154C212.558 307.848 212.558 309.592 213.763 310.286L245.489 328.531C249.005 330.558 253.329 330.558 256.844 328.531L287.45 311.123C288.655 310.428 288.655 308.685 287.45 307.99L256.476 290.185L256.49 290.171Z" fill="url(#paint41_linear_1321_9627)"/>
</g>
<path opacity="0.5" d="M287.452 307.976L256.478 290.171C252.494 287.874 247.589 287.874 243.606 290.171L213.751 307.154C213.141 307.508 212.844 308.118 212.844 308.727V347.485C212.844 348.094 213.141 348.704 213.751 349.058L245.477 367.303C248.993 369.33 253.316 369.33 256.832 367.303L287.438 349.894C288.048 349.54 288.346 348.93 288.346 348.321V309.564C288.346 308.954 288.048 308.344 287.438 307.99L287.452 307.976Z" fill="url(#paint42_linear_1321_9627)"/>
<g opacity="0.11">
<path d="M256.49 290.171C252.506 287.874 247.601 287.874 243.618 290.171L213.763 307.154C212.558 307.848 212.558 309.592 213.763 310.286L245.489 328.531C249.005 330.558 253.329 330.558 256.844 328.531L287.45 311.123C288.655 310.428 288.655 308.685 287.45 307.99L256.476 290.185L256.49 290.171Z" fill="url(#paint43_linear_1321_9627)"/>
</g>
<path d="M287.449 309.323L256.843 326.731C253.327 328.758 249.004 328.758 245.488 326.731L213.762 308.486C213.464 308.316 213.238 308.075 213.096 307.806C212.642 308.628 212.855 309.748 213.762 310.272L245.488 328.517C249.004 330.544 253.327 330.544 256.843 328.517L287.449 311.109C288.357 310.584 288.583 309.464 288.116 308.642C287.96 308.911 287.747 309.152 287.449 309.323Z" fill="url(#paint44_linear_1321_9627)"/>
<path opacity="0.7" d="M250.623 319.757L231.301 308.6L250.623 297.43L269.945 308.6L250.623 319.757Z" fill="#BBF39F"/>
<path d="M250.619 320.791C250.435 320.791 250.265 320.749 250.095 320.65L230.773 309.493C230.447 309.309 230.248 308.954 230.248 308.586C230.248 308.217 230.447 307.863 230.773 307.679L250.095 296.522C250.421 296.338 250.818 296.338 251.144 296.522L270.466 307.679C270.792 307.863 270.99 308.217 270.99 308.586C270.99 308.954 270.792 309.309 270.466 309.493L251.144 320.65C250.988 320.749 250.803 320.791 250.619 320.791ZM233.381 308.586L250.619 318.537L267.857 308.586L250.619 298.634L233.381 308.586Z" fill="#BBF39F"/>
<defs>
<radialGradient id="paint0_radial_1321_9627" cx="0" cy="0" r="1" gradientUnits="userSpaceOnUse" gradientTransform="translate(773.622 76.5792) rotate(180) scale(525.281 621.947)">
<stop stop-color="#FF2C9C"/>
<stop offset="0.03" stop-color="#F52E9F"/>
<stop offset="0.2" stop-color="#C53EB0"/>
<stop offset="0.37" stop-color="#9D4ABE"/>
<stop offset="0.54" stop-color="#7E54C8"/>
<stop offset="0.7" stop-color="#685BD0"/>
<stop offset="0.86" stop-color="#5B5FD5"/>
<stop offset="1" stop-color="#5761D7"/>
</radialGradient>
<linearGradient id="paint1_linear_1321_9627" x1="377.641" y1="236.642" x2="576.858" y2="351.667" gradientUnits="userSpaceOnUse">
<stop stop-color="#BCBEFF"/>
<stop offset="0.23" stop-color="#AAADF7"/>
<stop offset="0.68" stop-color="#7B82E5"/>
<stop offset="1" stop-color="#5761D7"/>
</linearGradient>
<linearGradient id="paint2_linear_1321_9627" x1="377.641" y1="236.642" x2="576.858" y2="351.667" gradientUnits="userSpaceOnUse">
<stop stop-color="#2FD3C7"/>
<stop offset="0.09" stop-color="#30B5BD"/>
<stop offset="0.23" stop-color="#338CAF"/>
<stop offset="0.37" stop-color="#356BA4"/>
<stop offset="0.52" stop-color="#36519C"/>
<stop offset="0.67" stop-color="#383E95"/>
<stop offset="0.83" stop-color="#383392"/>
<stop offset="1" stop-color="#393091"/>
</linearGradient>
<linearGradient id="paint3_linear_1321_9627" x1="350.224" y1="284.344" x2="606.229" y2="284.344" gradientUnits="userSpaceOnUse">
<stop stop-color="#E9E9FD"/>
<stop offset="0.36" stop-color="#D2D2F9"/>
<stop offset="0.71" stop-color="#C4C3F6"/>
<stop offset="1" stop-color="#C0BFF6"/>
</linearGradient>
<radialGradient id="paint4_radial_1321_9627" cx="0" cy="0" r="1" gradientUnits="userSpaceOnUse" gradientTransform="translate(477.113 329.736) scale(116.542 116.542)">
<stop stop-color="#42E8E0"/>
<stop offset="0.08" stop-color="#3AC4C8"/>
<stop offset="0.21" stop-color="#2E92A8"/>
<stop offset="0.34" stop-color="#24668B"/>
<stop offset="0.47" stop-color="#1D4374"/>
<stop offset="0.6" stop-color="#162862"/>
<stop offset="0.73" stop-color="#121456"/>
<stop offset="0.86" stop-color="#0F084E"/>
<stop offset="1" stop-color="#0F054C"/>
</radialGradient>
<radialGradient id="paint5_radial_1321_9627" cx="0" cy="0" r="1" gradientUnits="userSpaceOnUse" gradientTransform="translate(477.113 293.148) scale(116.13 116.13)">
<stop stop-color="#42E8E0"/>
<stop offset="0.08" stop-color="#3AC4C8"/>
<stop offset="0.21" stop-color="#2E92A8"/>
<stop offset="0.34" stop-color="#24668B"/>
<stop offset="0.47" stop-color="#1D4374"/>
<stop offset="0.6" stop-color="#162862"/>
<stop offset="0.73" stop-color="#121456"/>
<stop offset="0.86" stop-color="#0F084E"/>
<stop offset="1" stop-color="#0F054C"/>
</radialGradient>
<linearGradient id="paint6_linear_1321_9627" x1="443.683" y1="240.979" x2="511.118" y2="279.921" gradientUnits="userSpaceOnUse">
<stop stop-color="#BCBEFF"/>
<stop offset="0.23" stop-color="#AAADF7"/>
<stop offset="0.68" stop-color="#7B82E5"/>
<stop offset="1" stop-color="#5761D7"/>
</linearGradient>
<linearGradient id="paint7_linear_1321_9627" x1="443.683" y1="240.979" x2="511.118" y2="279.921" gradientUnits="userSpaceOnUse">
<stop stop-color="#706EC4"/>
<stop offset="0.02" stop-color="#6D6BC1"/>
<stop offset="0.25" stop-color="#5651AC"/>
<stop offset="0.49" stop-color="#463E9D"/>
<stop offset="0.73" stop-color="#3C3393"/>
<stop offset="1" stop-color="#393091"/>
</linearGradient>
<linearGradient id="paint8_linear_1321_9627" x1="436.804" y1="252.547" x2="519.592" y2="252.547" gradientUnits="userSpaceOnUse">
<stop stop-color="#E9E9FD"/>
<stop offset="0.36" stop-color="#D2D2F9"/>
<stop offset="0.71" stop-color="#C4C3F6"/>
<stop offset="1" stop-color="#C0BFF6"/>
</linearGradient>
<linearGradient id="paint9_linear_1321_9627" x1="443.683" y1="223.869" x2="511.118" y2="262.797" gradientUnits="userSpaceOnUse">
<stop stop-color="#BCBEFF"/>
<stop offset="0.23" stop-color="#AAADF7"/>
<stop offset="0.68" stop-color="#7B82E5"/>
<stop offset="1" stop-color="#5761D7"/>
</linearGradient>
<linearGradient id="paint10_linear_1321_9627" x1="443.683" y1="223.869" x2="511.118" y2="262.797" gradientUnits="userSpaceOnUse">
<stop stop-color="#706EC4"/>
<stop offset="0.02" stop-color="#6D6BC1"/>
<stop offset="0.25" stop-color="#5651AC"/>
<stop offset="0.49" stop-color="#463E9D"/>
<stop offset="0.73" stop-color="#3C3393"/>
<stop offset="1" stop-color="#393091"/>
</linearGradient>
<linearGradient id="paint11_linear_1321_9627" x1="436.804" y1="235.437" x2="519.592" y2="235.437" gradientUnits="userSpaceOnUse">
<stop stop-color="#E9E9FD"/>
<stop offset="0.36" stop-color="#D2D2F9"/>
<stop offset="0.71" stop-color="#C4C3F6"/>
<stop offset="1" stop-color="#C0BFF6"/>
</linearGradient>
<linearGradient id="paint12_linear_1321_9627" x1="443.683" y1="206.758" x2="511.118" y2="245.685" gradientUnits="userSpaceOnUse">
<stop stop-color="#BCBEFF"/>
<stop offset="0.23" stop-color="#AAADF7"/>
<stop offset="0.68" stop-color="#7B82E5"/>
<stop offset="1" stop-color="#5761D7"/>
</linearGradient>
<linearGradient id="paint13_linear_1321_9627" x1="443.683" y1="206.758" x2="511.118" y2="245.685" gradientUnits="userSpaceOnUse">
<stop stop-color="#706EC4"/>
<stop offset="0.02" stop-color="#6D6BC1"/>
<stop offset="0.25" stop-color="#5651AC"/>
<stop offset="0.49" stop-color="#463E9D"/>
<stop offset="0.73" stop-color="#3C3393"/>
<stop offset="1" stop-color="#393091"/>
</linearGradient>
<linearGradient id="paint14_linear_1321_9627" x1="436.804" y1="218.325" x2="519.592" y2="218.325" gradientUnits="userSpaceOnUse">
<stop stop-color="#E9E9FD"/>
<stop offset="0.36" stop-color="#D2D2F9"/>
<stop offset="0.71" stop-color="#C4C3F6"/>
<stop offset="1" stop-color="#C0BFF6"/>
</linearGradient>
<linearGradient id="paint15_linear_1321_9627" x1="443.683" y1="189.647" x2="511.118" y2="228.575" gradientUnits="userSpaceOnUse">
<stop stop-color="#BCBEFF"/>
<stop offset="0.23" stop-color="#AAADF7"/>
<stop offset="0.68" stop-color="#7B82E5"/>
<stop offset="1" stop-color="#5761D7"/>
</linearGradient>
<linearGradient id="paint16_linear_1321_9627" x1="443.683" y1="189.647" x2="511.118" y2="228.575" gradientUnits="userSpaceOnUse">
<stop stop-color="#706EC4"/>
<stop offset="0.02" stop-color="#6D6BC1"/>
<stop offset="0.25" stop-color="#5651AC"/>
<stop offset="0.49" stop-color="#463E9D"/>
<stop offset="0.73" stop-color="#3C3393"/>
<stop offset="1" stop-color="#393091"/>
</linearGradient>
<linearGradient id="paint17_linear_1321_9627" x1="436.804" y1="201.215" x2="519.592" y2="201.215" gradientUnits="userSpaceOnUse">
<stop stop-color="#E9E9FD"/>
<stop offset="0.36" stop-color="#D2D2F9"/>
<stop offset="0.71" stop-color="#C4C3F6"/>
<stop offset="1" stop-color="#C0BFF6"/>
</linearGradient>
<linearGradient id="paint18_linear_1321_9627" x1="443.683" y1="172.537" x2="511.118" y2="211.465" gradientUnits="userSpaceOnUse">
<stop stop-color="#BCBEFF"/>
<stop offset="0.23" stop-color="#AAADF7"/>
<stop offset="0.68" stop-color="#7B82E5"/>
<stop offset="1" stop-color="#5761D7"/>
</linearGradient>
<linearGradient id="paint19_linear_1321_9627" x1="443.683" y1="172.537" x2="511.118" y2="211.465" gradientUnits="userSpaceOnUse">
<stop stop-color="#706EC4"/>
<stop offset="0.02" stop-color="#6D6BC1"/>
<stop offset="0.25" stop-color="#5651AC"/>
<stop offset="0.49" stop-color="#463E9D"/>
<stop offset="0.73" stop-color="#3C3393"/>
<stop offset="1" stop-color="#393091"/>
</linearGradient>
<linearGradient id="paint20_linear_1321_9627" x1="436.804" y1="184.105" x2="519.592" y2="184.105" gradientUnits="userSpaceOnUse">
<stop stop-color="#E9E9FD"/>
<stop offset="0.36" stop-color="#D2D2F9"/>
<stop offset="0.71" stop-color="#C4C3F6"/>
<stop offset="1" stop-color="#C0BFF6"/>
</linearGradient>
<linearGradient id="paint21_linear_1321_9627" x1="443.683" y1="155.427" x2="511.118" y2="194.354" gradientUnits="userSpaceOnUse">
<stop stop-color="#BCBEFF"/>
<stop offset="0.23" stop-color="#AAADF7"/>
<stop offset="0.68" stop-color="#7B82E5"/>
<stop offset="1" stop-color="#5761D7"/>
</linearGradient>
<linearGradient id="paint22_linear_1321_9627" x1="443.683" y1="155.427" x2="511.118" y2="194.354" gradientUnits="userSpaceOnUse">
<stop stop-color="#706EC4"/>
<stop offset="0.02" stop-color="#6D6BC1"/>
<stop offset="0.25" stop-color="#5651AC"/>
<stop offset="0.49" stop-color="#463E9D"/>
<stop offset="0.73" stop-color="#3C3393"/>
<stop offset="1" stop-color="#393091"/>
</linearGradient>
<linearGradient id="paint23_linear_1321_9627" x1="436.804" y1="166.994" x2="519.592" y2="166.994" gradientUnits="userSpaceOnUse">
<stop stop-color="#E9E9FD"/>
<stop offset="0.36" stop-color="#D2D2F9"/>
<stop offset="0.71" stop-color="#C4C3F6"/>
<stop offset="1" stop-color="#C0BFF6"/>
</linearGradient>
<linearGradient id="paint24_linear_1321_9627" x1="-92.5043" y1="116.401" x2="576.848" y2="231.411" gradientUnits="userSpaceOnUse">
<stop stop-color="#BCBEFF"/>
<stop offset="0.23" stop-color="#AAADF7"/>
<stop offset="0.68" stop-color="#7B82E5"/>
<stop offset="1" stop-color="#5761D7"/>
</linearGradient>
<linearGradient id="paint25_linear_1321_9627" x1="-92.5043" y1="116.401" x2="576.848" y2="231.411" gradientUnits="userSpaceOnUse">
<stop stop-color="#2FD3C7"/>
<stop offset="0.09" stop-color="#30B5BD"/>
<stop offset="0.23" stop-color="#338CAF"/>
<stop offset="0.37" stop-color="#356BA4"/>
<stop offset="0.52" stop-color="#36519C"/>
<stop offset="0.67" stop-color="#383E95"/>
<stop offset="0.83" stop-color="#383392"/>
<stop offset="1" stop-color="#393091"/>
</linearGradient>
<radialGradient id="paint26_radial_1321_9627" cx="0" cy="0" r="1" gradientUnits="userSpaceOnUse" gradientTransform="translate(477.103 172.892) scale(116.13 116.13)">
<stop stop-color="#42E8E0"/>
<stop offset="0.08" stop-color="#3AC4C8"/>
<stop offset="0.21" stop-color="#2E92A8"/>
<stop offset="0.34" stop-color="#24668B"/>
<stop offset="0.47" stop-color="#1D4374"/>
<stop offset="0.6" stop-color="#162862"/>
<stop offset="0.73" stop-color="#121456"/>
<stop offset="0.86" stop-color="#0F084E"/>
<stop offset="1" stop-color="#0F054C"/>
</radialGradient>
<linearGradient id="paint27_linear_1321_9627" x1="350.211" y1="164.103" x2="-91.0902" y2="164.103" gradientUnits="userSpaceOnUse">
<stop stop-color="#E9E9FD"/>
<stop offset="0.36" stop-color="#D2D2F9"/>
<stop offset="0.71" stop-color="#C4C3F6"/>
<stop offset="1" stop-color="#C0BFF6"/>
</linearGradient>
<linearGradient id="paint28_linear_1321_9627" x1="544.155" y1="167.589" x2="544.155" y2="35.3833" gradientUnits="userSpaceOnUse">
<stop stop-color="#42E8E0"/>
<stop offset="0.19" stop-color="#34ADB9"/>
<stop offset="0.4" stop-color="#277293"/>
<stop offset="0.59" stop-color="#1C4374"/>
<stop offset="0.76" stop-color="#15215E"/>
<stop offset="0.91" stop-color="#100C50"/>
<stop offset="1" stop-color="#0F054C"/>
</linearGradient>
<linearGradient id="paint29_linear_1321_9627" x1="412.262" y1="167.589" x2="412.262" y2="35.3833" gradientUnits="userSpaceOnUse">
<stop stop-color="#42E8E0"/>
<stop offset="0.19" stop-color="#34ADB9"/>
<stop offset="0.4" stop-color="#277293"/>
<stop offset="0.59" stop-color="#1C4374"/>
<stop offset="0.76" stop-color="#15215E"/>
<stop offset="0.91" stop-color="#100C50"/>
<stop offset="1" stop-color="#0F054C"/>
</linearGradient>
<linearGradient id="paint30_linear_1321_9627" x1="646.216" y1="223.145" x2="719.237" y2="265.29" gradientUnits="userSpaceOnUse">
<stop stop-color="#BCBEFF"/>
<stop offset="0.23" stop-color="#AAADF7"/>
<stop offset="0.68" stop-color="#7B82E5"/>
<stop offset="1" stop-color="#5761D7"/>
</linearGradient>
<linearGradient id="paint31_linear_1321_9627" x1="637.059" y1="239.079" x2="729.09" y2="239.079" gradientUnits="userSpaceOnUse">
<stop stop-color="#E9E9FD"/>
<stop offset="0.36" stop-color="#D2D2F9"/>
<stop offset="0.71" stop-color="#C4C3F6"/>
<stop offset="1" stop-color="#C0BFF6"/>
</linearGradient>
<linearGradient id="paint32_linear_1321_9627" x1="646.226" y1="181.723" x2="719.247" y2="223.882" gradientUnits="userSpaceOnUse">
<stop stop-color="#BCBEFF"/>
<stop offset="0.23" stop-color="#AAADF7"/>
<stop offset="0.68" stop-color="#7B82E5"/>
<stop offset="1" stop-color="#5761D7"/>
</linearGradient>
<linearGradient id="paint33_linear_1321_9627" x1="637.068" y1="197.657" x2="729.099" y2="197.657" gradientUnits="userSpaceOnUse">
<stop stop-color="#E9E9FD"/>
<stop offset="0.36" stop-color="#D2D2F9"/>
<stop offset="0.71" stop-color="#C4C3F6"/>
<stop offset="1" stop-color="#C0BFF6"/>
</linearGradient>
<linearGradient id="paint34_linear_1321_9627" x1="213.771" y1="391.091" x2="286.792" y2="433.25" gradientUnits="userSpaceOnUse">
<stop stop-color="#BCBEFF"/>
<stop offset="0.23" stop-color="#AAADF7"/>
<stop offset="0.68" stop-color="#7B82E5"/>
<stop offset="1" stop-color="#5761D7"/>
</linearGradient>
<linearGradient id="paint35_linear_1321_9627" x1="204.613" y1="407.024" x2="296.644" y2="407.024" gradientUnits="userSpaceOnUse">
<stop stop-color="#E9E9FD"/>
<stop offset="0.36" stop-color="#D2D2F9"/>
<stop offset="0.71" stop-color="#C4C3F6"/>
<stop offset="1" stop-color="#C0BFF6"/>
</linearGradient>
<linearGradient id="paint36_linear_1321_9627" x1="213.767" y1="349.668" x2="286.788" y2="391.828" gradientUnits="userSpaceOnUse">
<stop stop-color="#BCBEFF"/>
<stop offset="0.23" stop-color="#AAADF7"/>
<stop offset="0.68" stop-color="#7B82E5"/>
<stop offset="1" stop-color="#5761D7"/>
</linearGradient>
<linearGradient id="paint37_linear_1321_9627" x1="204.609" y1="365.602" x2="296.64" y2="365.602" gradientUnits="userSpaceOnUse">
<stop stop-color="#E9E9FD"/>
<stop offset="0.36" stop-color="#D2D2F9"/>
<stop offset="0.71" stop-color="#C4C3F6"/>
<stop offset="1" stop-color="#C0BFF6"/>
</linearGradient>
<linearGradient id="paint38_linear_1321_9627" x1="212.87" y1="347.995" x2="288.372" y2="347.995" gradientUnits="userSpaceOnUse">
<stop stop-color="#5761D7"/>
<stop offset="0.07" stop-color="#5471D8"/>
<stop offset="0.28" stop-color="#4D9BDA"/>
<stop offset="0.48" stop-color="#48BDDD"/>
<stop offset="0.67" stop-color="#44D4DE"/>
<stop offset="0.85" stop-color="#42E3DF"/>
<stop offset="1" stop-color="#42E8E0"/>
</linearGradient>
<linearGradient id="paint39_linear_1321_9627" x1="-92.4969" y1="335.08" x2="-91.0793" y2="335.08" gradientUnits="userSpaceOnUse">
<stop stop-color="#5761D7"/>
<stop offset="0.07" stop-color="#5471D8"/>
<stop offset="0.28" stop-color="#4D9BDA"/>
<stop offset="0.48" stop-color="#48BDDD"/>
<stop offset="0.67" stop-color="#44D4DE"/>
<stop offset="0.85" stop-color="#42E3DF"/>
<stop offset="1" stop-color="#42E8E0"/>
</linearGradient>
<linearGradient id="paint40_linear_1321_9627" x1="-92.4969" y1="322.167" x2="-91.0793" y2="322.167" gradientUnits="userSpaceOnUse">
<stop stop-color="#5761D7"/>
<stop offset="0.07" stop-color="#5471D8"/>
<stop offset="0.28" stop-color="#4D9BDA"/>
<stop offset="0.48" stop-color="#48BDDD"/>
<stop offset="0.67" stop-color="#44D4DE"/>
<stop offset="0.85" stop-color="#42E3DF"/>
<stop offset="1" stop-color="#42E8E0"/>
</linearGradient>
<linearGradient id="paint41_linear_1321_9627" x1="-92.4969" y1="309.237" x2="-91.0793" y2="309.237" gradientUnits="userSpaceOnUse">
<stop stop-color="#5761D7"/>
<stop offset="0.07" stop-color="#5471D8"/>
<stop offset="0.28" stop-color="#4D9BDA"/>
<stop offset="0.48" stop-color="#48BDDD"/>
<stop offset="0.67" stop-color="#44D4DE"/>
<stop offset="0.85" stop-color="#42E3DF"/>
<stop offset="1" stop-color="#42E8E0"/>
</linearGradient>
<linearGradient id="paint42_linear_1321_9627" x1="212.858" y1="328.616" x2="-91.0915" y2="328.616" gradientUnits="userSpaceOnUse">
<stop stop-color="#5761D7"/>
<stop offset="0.07" stop-color="#5471D8"/>
<stop offset="0.28" stop-color="#4D9BDA"/>
<stop offset="0.48" stop-color="#48BDDD"/>
<stop offset="0.67" stop-color="#44D4DE"/>
<stop offset="0.85" stop-color="#42E3DF"/>
<stop offset="1" stop-color="#42E8E0"/>
</linearGradient>
<linearGradient id="paint43_linear_1321_9627" x1="-92.4969" y1="309.237" x2="-91.0793" y2="309.237" gradientUnits="userSpaceOnUse">
<stop stop-color="#5761D7"/>
<stop offset="0.07" stop-color="#5471D8"/>
<stop offset="0.28" stop-color="#4D9BDA"/>
<stop offset="0.48" stop-color="#48BDDD"/>
<stop offset="0.67" stop-color="#44D4DE"/>
<stop offset="0.85" stop-color="#42E3DF"/>
<stop offset="1" stop-color="#42E8E0"/>
</linearGradient>
<linearGradient id="paint44_linear_1321_9627" x1="212.855" y1="318.934" x2="288.357" y2="318.934" gradientUnits="userSpaceOnUse">
<stop stop-color="#5761D7"/>
<stop offset="0.07" stop-color="#5471D8"/>
<stop offset="0.28" stop-color="#4D9BDA"/>
<stop offset="0.48" stop-color="#48BDDD"/>
<stop offset="0.67" stop-color="#44D4DE"/>
<stop offset="0.85" stop-color="#42E3DF"/>
<stop offset="1" stop-color="#42E8E0"/>
</linearGradient>
</defs>
</svg>
